<!DOCTYPE svg PUBLIC "-//W3C//DTD SVG 20010904//EN" "http://www.w3.org/TR/2001/REC-SVG-20010904/DTD/svg10.dtd">
<svg version="1.0" xmlns="http://www.w3.org/2000/svg" width="143px" height="63px" viewBox="0 0 1430 630" preserveAspectRatio="xMidYMid meet">
<g id="layer101" fill="#000000" stroke="none">
 <path d="M617 616 c-78 -29 -102 -75 -95 -188 3 -64 7 -73 36 -99 18 -16 40 -29 50 -29 11 0 6 -6 -13 -15 -41 -21 -56 -48 -62 -114 -9 -116 49 -164 197 -164 148 0 206 48 197 164 -6 65 -21 95 -59 111 l-27 12 29 13 c47 19 70 67 70 143 0 79 -21 126 -70 154 -44 26 -196 33 -253 12z m204 -61 c34 -18 49 -50 49 -105 0 -85 -40 -120 -139 -120 -102 0 -141 34 -141 122 0 53 17 89 50 105 35 18 145 16 181 -2z m-15 -301 c69 -33 71 -143 4 -176 -77 -39 -186 -12 -204 50 -14 50 7 106 47 126 41 20 110 20 153 0z"/>
 <path d="M1095 615 c-68 -24 -95 -73 -95 -174 0 -59 27 -112 66 -132 30 -14 30 -16 11 -25 -41 -18 -61 -60 -61 -126 0 -111 50 -151 189 -151 147 -1 196 33 203 137 5 76 -14 121 -61 141 -18 8 -25 14 -15 15 35 0 79 53 89 105 20 109 -21 190 -109 215 -52 14 -170 12 -217 -5z m231 -78 c34 -40 35 -134 0 -174 -21 -24 -32 -28 -95 -31 -42 -3 -83 1 -100 8 -73 30 -81 177 -12 215 18 11 49 14 104 13 72 -3 81 -6 103 -31z m-41 -282 c57 -23 75 -111 33 -160 -28 -31 -102 -43 -166 -25 -35 9 -46 18 -58 46 -26 62 4 133 61 147 41 10 97 7 130 -8z"/>
 <path d="M0 613 c1 -5 52 -73 114 -153 l114 -145 -81 -105 c-44 -58 -96 -124 -115 -148 l-34 -42 45 0 45 0 88 115 c49 63 92 115 95 115 3 0 43 -52 89 -115 82 -112 85 -115 122 -115 21 0 38 3 38 8 0 4 -45 68 -100 142 -55 74 -100 138 -100 142 0 4 47 71 105 150 58 79 105 146 105 151 0 4 -18 7 -39 7 -38 0 -40 -2 -126 -120 -47 -66 -90 -120 -95 -120 -5 0 -51 54 -102 120 -89 116 -94 120 -130 120 -21 0 -38 -3 -38 -7z"/>
 </g>
<g id="layer102" fill="#70bd1e" stroke="none">
 <path d="M617 616 c-78 -29 -102 -75 -95 -188 3 -64 7 -73 36 -99 18 -16 40 -29 50 -29 11 0 6 -6 -13 -15 -41 -21 -56 -48 -62 -114 -9 -116 49 -164 197 -164 148 0 206 48 197 164 -6 65 -21 95 -59 111 l-27 12 29 13 c47 19 70 67 70 143 0 79 -21 126 -70 154 -44 26 -196 33 -253 12z m204 -61 c34 -18 49 -50 49 -105 0 -85 -40 -120 -139 -120 -102 0 -141 34 -141 122 0 53 17 89 50 105 35 18 145 16 181 -2z m-15 -301 c69 -33 71 -143 4 -176 -77 -39 -186 -12 -204 50 -14 50 7 106 47 126 41 20 110 20 153 0z"/>
 <path d="M1095 615 c-68 -24 -95 -73 -95 -174 0 -59 27 -112 66 -132 30 -14 30 -16 11 -25 -41 -18 -61 -60 -61 -126 0 -111 50 -151 189 -151 147 -1 196 33 203 137 5 76 -14 121 -61 141 -18 8 -25 14 -15 15 35 0 79 53 89 105 20 109 -21 190 -109 215 -52 14 -170 12 -217 -5z m231 -78 c34 -40 35 -134 0 -174 -21 -24 -32 -28 -95 -31 -42 -3 -83 1 -100 8 -73 30 -81 177 -12 215 18 11 49 14 104 13 72 -3 81 -6 103 -31z m-41 -282 c57 -23 75 -111 33 -160 -28 -31 -102 -43 -166 -25 -35 9 -46 18 -58 46 -26 62 4 133 61 147 41 10 97 7 130 -8z"/>
 </g>

</svg>