<!DOCTYPE svg PUBLIC "-//W3C//DTD SVG 20010904//EN" "http://www.w3.org/TR/2001/REC-SVG-20010904/DTD/svg10.dtd">
<svg version="1.0" xmlns="http://www.w3.org/2000/svg" width="277px" height="134px" viewBox="0 0 2770 1340" preserveAspectRatio="xMidYMid meet">
<g id="layer101" fill="#0094d1" stroke="none">
 <path d="M158 1328 c-10 -8 -37 -88 -68 -203 -28 -104 -58 -210 -65 -235 -21 -65 -28 -124 -21 -164 6 -34 10 -36 79 -56 40 -12 92 -28 117 -35 25 -8 106 -30 180 -50 74 -19 164 -44 200 -55 82 -25 181 -51 340 -91 69 -18 134 -36 145 -40 37 -16 310 -89 331 -89 11 0 24 -4 30 -9 7 -8 192 -60 324 -92 19 -4 89 -24 155 -44 66 -20 143 -40 170 -46 28 -6 59 -14 70 -19 36 -15 210 -60 233 -60 12 0 22 -4 22 -9 0 -10 100 -31 150 -31 70 0 61 -21 180 420 45 163 47 189 23 219 -19 21 -145 61 -195 61 -16 0 -28 5 -28 10 0 6 -11 10 -25 10 -14 0 -33 4 -43 10 -24 14 -264 80 -290 80 -11 0 -23 4 -26 9 -3 4 -34 14 -68 20 -35 7 -72 17 -83 21 -36 15 -147 48 -270 79 -66 17 -248 67 -405 110 -157 44 -293 80 -303 81 -9 0 -25 4 -35 10 -9 5 -93 30 -187 55 -93 25 -183 49 -200 54 -246 77 -404 106 -437 79z m107 -34 c51 -2 298 -72 306 -86 4 -6 12 -7 18 -3 15 8 71 -13 71 -28 0 -5 8 -16 18 -23 16 -13 16 -13 -1 -14 -31 0 -147 32 -147 41 0 5 -14 9 -31 9 -18 0 -63 9 -102 21 -51 15 -82 19 -119 14 -46 -7 -49 -9 -44 -31 8 -30 -20 -94 -40 -94 -8 0 -14 -4 -14 -10 0 -5 -11 -10 -25 -10 -16 0 -25 -6 -25 -15 0 -8 7 -15 15 -15 8 0 15 -5 15 -11 0 -6 9 -9 20 -6 11 3 20 1 20 -4 0 -5 -7 -9 -16 -9 -11 0 -15 -8 -13 -27 4 -48 0 -63 -17 -63 -11 0 -15 -6 -11 -20 3 -11 1 -20 -4 -20 -5 0 -9 -7 -9 -15 0 -8 5 -15 10 -15 6 0 10 -7 10 -15 0 -14 -14 -19 -47 -18 -7 1 -13 -5 -13 -13 0 -8 7 -14 15 -14 8 0 32 -18 55 -41 23 -23 46 -39 54 -36 18 7 449 -112 457 -125 4 -6 12 -7 18 -3 7 4 20 -3 31 -15 15 -18 23 -20 33 -11 11 8 40 4 123 -20 60 -16 111 -34 114 -39 3 -4 16 -8 30 -7 14 0 78 -14 142 -32 83 -24 115 -37 112 -46 -7 -18 27 -28 57 -17 28 11 198 -33 214 -55 6 -7 21 -12 35 -10 33 5 127 -20 169 -44 19 -11 43 -18 54 -15 11 2 27 -3 37 -12 15 -14 16 -20 6 -34 -8 -11 -17 -14 -27 -7 -8 5 -26 9 -41 9 -15 0 -30 5 -33 10 -3 5 -16 10 -28 10 -12 1 -74 15 -137 33 -95 26 -115 35 -112 49 3 15 -4 18 -33 18 -25 0 -34 -4 -29 -12 5 -7 2 -9 -7 -6 -8 3 -77 22 -154 43 -77 21 -148 45 -157 53 -10 8 -24 12 -32 9 -8 -3 -49 4 -92 16 -42 11 -72 23 -65 25 14 5 15 29 1 37 -5 3 -23 -1 -40 -10 -16 -8 -30 -11 -30 -6 0 14 -33 23 -41 10 -5 -9 -15 -7 -39 5 -18 9 -41 16 -50 16 -10 0 -46 8 -81 19 -35 10 -134 38 -219 61 -85 23 -163 44 -172 46 -10 3 -18 12 -18 20 0 8 -7 14 -15 14 -8 0 -15 3 -15 8 -1 19 -44 56 -68 59 -15 1 -37 5 -49 9 -20 5 -23 2 -24 -22 l-2 -29 -4 27 c-2 15 3 41 12 58 9 17 13 35 9 41 -3 6 3 13 15 16 24 6 26 14 10 30 -18 18 -1 53 27 53 26 0 29 7 15 29 -5 8 -14 10 -22 6 -9 -6 -10 -3 -5 11 4 10 10 34 13 52 3 17 10 32 15 32 6 0 8 7 4 15 -3 9 0 15 8 15 11 0 13 10 9 39 -5 33 -2 40 16 46 22 7 30 35 10 35 -7 0 -9 10 -4 27 9 39 25 55 44 47 9 -4 34 -8 56 -10z m233 -150 c92 -26 183 -50 202 -55 19 -4 51 -12 70 -18 76 -21 335 -94 521 -146 108 -30 204 -55 213 -55 9 0 24 -4 34 -10 17 -9 284 -86 352 -100 19 -4 91 -24 160 -44 213 -61 489 -136 502 -136 7 0 27 -9 45 -19 l31 -20 -30 -113 c-17 -62 -40 -151 -53 -198 -12 -46 -27 -86 -32 -87 -9 -3 -238 53 -252 61 -14 9 -203 56 -224 56 -13 0 -28 5 -33 10 -15 15 -143 50 -181 50 -17 0 -33 4 -35 9 -1 5 -46 21 -98 36 -241 67 -288 78 -325 83 -22 2 -45 8 -51 13 -12 9 -59 23 -439 128 -738 203 -695 189 -695 220 0 10 9 49 20 87 21 70 35 119 66 232 15 54 20 62 41 62 13 0 99 -21 191 -46z m355 -5 c55 -16 105 -33 110 -38 5 -5 15 -7 21 -5 6 2 90 -18 186 -44 96 -27 223 -62 282 -78 104 -28 134 -44 84 -44 -13 0 -27 -6 -29 -12 -4 -10 -8 -10 -14 -1 -4 6 -24 11 -43 12 -39 0 -280 66 -289 78 -3 4 -19 15 -34 23 -22 11 -30 11 -36 2 -5 -9 -28 -6 -92 12 -46 14 -103 30 -127 36 -23 6 -40 15 -37 19 2 5 -5 11 -17 14 -12 4 -25 2 -29 -4 -4 -7 -12 -5 -22 5 -8 9 -20 16 -26 16 -6 0 -11 5 -11 10 0 6 -7 10 -15 10 -9 0 -12 6 -9 15 4 10 13 13 26 9 11 -3 66 -19 121 -35z m798 -220 c19 -6 41 -13 49 -17 18 -7 29 -9 53 -11 9 0 17 -8 17 -16 0 -8 9 -19 20 -25 49 -26 11 -26 -87 1 -144 38 -137 35 -116 58 22 24 22 24 64 10z m282 -76 c34 -7 31 -23 -7 -36 -20 -7 -30 -6 -36 2 -4 7 -18 10 -31 8 -13 -2 -18 -2 -11 0 6 3 12 14 12 25 0 16 4 19 23 14 12 -4 35 -9 50 -13z m112 -39 c8 -9 24 -14 35 -11 12 3 29 -4 45 -19 14 -13 21 -24 15 -24 -6 0 -8 -5 -5 -10 4 -7 -3 -8 -22 -4 -57 14 -73 23 -67 39 7 17 -30 22 -41 5 -3 -5 -14 -10 -23 -10 -16 1 -16 1 1 11 9 5 17 17 17 24 0 20 25 19 45 -1z m207 -50 c5 -3 8 -12 8 -19 0 -8 9 -19 19 -25 26 -14 31 -13 31 6 0 14 3 14 16 3 11 -9 17 -10 22 -2 5 8 19 6 47 -7 22 -11 54 -19 72 -20 17 0 33 -4 35 -9 2 -6 22 -12 45 -15 76 -9 181 -45 185 -64 5 -21 -15 -93 -25 -93 -4 1 -16 1 -28 1 -11 0 -17 4 -14 10 10 17 -23 67 -52 78 -15 6 -113 34 -217 62 -142 38 -193 56 -207 73 -10 12 -18 26 -19 31 0 8 66 0 82 -10z m450 -301 c-3 -16 -7 -22 -9 -15 -3 6 -12 12 -21 12 -12 1 -10 5 8 15 14 8 26 14 26 15 1 0 -1 -12 -4 -27z m-18 -60 c-4 -16 -13 -32 -21 -36 -10 -6 -13 -17 -8 -34 3 -15 1 -32 -8 -42 -7 -9 -14 -27 -15 -40 0 -13 -6 -27 -13 -32 -7 -4 -9 -17 -5 -32 3 -14 2 -36 -3 -49 -6 -13 -10 -18 -10 -11 -1 6 -10 15 -21 18 -24 8 -26 28 -4 50 9 8 14 21 11 28 -4 11 27 138 48 195 2 6 16 12 30 12 23 0 25 -3 19 -27z m-747 -136 c18 -7 34 -16 35 -22 2 -5 19 -10 38 -10 53 -1 221 -46 227 -61 2 -7 29 -16 59 -20 56 -7 71 -24 35 -43 -24 -13 -88 4 -117 30 -15 15 -29 18 -48 13 -20 -5 -26 -2 -26 10 0 17 -45 24 -52 8 -1 -5 -44 3 -95 16 -90 24 -91 25 -95 58 -2 19 -2 34 2 33 3 0 20 -6 37 -12z m513 -146 c3 -3 35 -6 72 -6 37 -1 70 -4 74 -7 3 -4 2 -19 -3 -35 -12 -35 -57 -44 -79 -16 -10 12 -17 14 -20 7 -7 -16 -44 -5 -38 10 3 7 -7 19 -22 26 -23 13 -27 12 -35 -3 -16 -28 -28 -19 -16 13 9 25 15 28 37 23 14 -3 27 -9 30 -12z"/>
 <path d="M358 1033 c-3 -62 -3 -66 -26 -112 -12 -25 -22 -50 -22 -57 0 -12 57 -40 66 -32 2 3 16 45 30 94 14 49 28 97 31 106 4 13 -3 21 -22 28 -46 17 -55 13 -57 -27z"/>
 <path d="M481 1011 c-26 -26 -56 -153 -42 -180 15 -27 81 -47 109 -32 19 10 42 69 58 151 7 31 -19 76 -37 65 -4 -3 -10 -1 -14 5 -10 16 -54 11 -74 -9z m44 -106 c-20 -68 -33 -66 -15 2 15 55 20 66 27 60 2 -3 -3 -30 -12 -62z"/>
 <path d="M640 965 c-6 -8 -8 -20 -4 -26 4 -7 3 -9 -3 -6 -13 8 -47 -115 -39 -141 14 -43 106 -57 130 -19 22 35 48 137 41 164 -9 39 -99 60 -125 28z m45 -100 c-9 -32 -19 -55 -22 -52 -2 3 3 31 12 62 9 32 19 55 22 52 2 -3 -3 -31 -12 -62z m-33 23 c-15 -15 -26 -4 -18 18 5 13 9 15 18 6 9 -9 9 -15 0 -24z"/>
 <path d="M823 926 c3 -7 16 -63 28 -124 19 -91 27 -112 43 -116 11 -3 22 -4 24 -2 4 5 -37 202 -49 234 -5 13 -17 22 -30 22 -14 0 -19 -5 -16 -14z"/>
 <path d="M921 896 c-7 -8 -15 -30 -18 -50 -5 -32 -3 -37 22 -46 21 -8 30 -8 35 1 6 8 9 7 13 -2 6 -18 27 33 27 66 0 38 -55 60 -79 31z"/>
 <path d="M1117 853 c-4 -3 -7 -18 -7 -33 0 -15 -9 -53 -21 -86 -11 -32 -23 -67 -26 -76 -4 -12 4 -19 33 -27 20 -6 41 -8 45 -6 4 3 9 1 11 -4 1 -5 20 -12 41 -16 41 -8 45 1 28 62 -8 26 -6 32 9 36 10 3 21 18 25 36 6 30 19 40 29 22 6 -10 -8 -137 -19 -162 -5 -13 6 -19 52 -32 60 -17 72 -13 73 25 0 9 15 42 33 75 50 87 51 92 21 103 -44 17 -64 13 -64 -15 0 -15 -6 -25 -15 -25 -12 0 -13 4 -3 25 7 16 8 29 2 34 -9 8 -122 41 -141 41 -6 0 -18 -19 -27 -41 -9 -23 -19 -39 -22 -36 -3 3 2 19 10 36 22 42 20 47 -15 60 -37 13 -43 13 -52 4z"/>
 <path d="M767 811 c3 -11 -2 -21 -11 -24 -20 -8 -21 -41 -2 -56 8 -7 27 -11 43 -9 23 2 30 10 37 39 13 52 3 69 -38 69 -28 0 -33 -3 -29 -19z"/>
 <path d="M1537 734 c-4 -4 -7 -18 -7 -32 0 -21 -3 -23 -25 -18 -40 10 -60 -8 -84 -74 -13 -34 -21 -63 -19 -65 3 -3 155 -45 163 -45 3 0 5 12 5 26 0 31 29 135 41 149 11 11 12 42 2 48 -17 10 -69 17 -76 11z m-31 -151 c-10 -26 -18 -8 -9 23 5 21 8 24 11 11 2 -10 1 -25 -2 -34z"/>
 <path d="M1636 698 c-2 -7 -9 -40 -16 -73 -7 -33 -19 -74 -28 -92 -9 -18 -14 -34 -11 -36 2 -2 37 -13 77 -24 l73 -21 10 25 c14 38 11 54 -12 60 -12 4 -18 11 -15 20 3 8 6 21 6 29 0 10 7 13 25 8 21 -5 26 -1 35 22 17 45 9 57 -55 76 -71 21 -84 22 -89 6z m45 -171 c-8 -8 -11 -7 -11 4 0 20 13 34 18 19 3 -7 -1 -17 -7 -23z"/>
 <path d="M1813 640 c-23 -27 -54 -138 -47 -167 7 -28 51 -53 91 -53 39 0 52 11 59 48 6 28 3 32 -21 38 -21 5 -31 2 -41 -11 -22 -29 -24 -14 -7 48 10 33 22 57 30 57 16 0 17 -12 1 -28 -16 -16 5 -32 39 -32 17 0 23 7 29 34 7 43 1 54 -42 72 -46 19 -71 18 -91 -6z"/>
 <path d="M2010 578 c0 -48 -25 -126 -33 -105 -4 10 -15 17 -25 17 -15 0 -22 -11 -30 -42 -6 -23 -10 -43 -9 -44 1 0 39 -11 85 -24 92 -26 99 -23 108 32 6 32 4 36 -21 42 -19 5 -25 11 -21 22 3 9 6 22 6 29 0 8 6 20 14 27 7 8 16 23 20 35 6 18 1 22 -38 32 -59 15 -56 16 -56 -21z"/>
 <path d="M2155 543 c-16 -81 -29 -128 -41 -152 -8 -14 -14 -29 -14 -33 0 -8 100 -38 127 -38 29 0 55 34 51 67 -2 17 4 35 15 46 35 35 6 118 -37 101 -9 -3 -16 -2 -16 4 0 5 -11 13 -24 16 -13 3 -31 9 -40 12 -11 4 -17 -2 -21 -23z m81 -72 c-12 -19 -24 -12 -19 10 4 13 9 17 15 11 6 -6 7 -15 4 -21z"/>
 <path d="M2348 499 c-18 -10 -58 -124 -58 -164 0 -32 33 -57 82 -62 51 -6 58 0 83 75 24 73 24 121 0 138 -22 16 -39 18 -30 4 3 -5 1 -10 -4 -10 -6 0 -11 7 -11 15 0 17 -36 20 -62 4z m42 -119 c-7 -28 -16 -50 -21 -50 -12 0 -12 3 8 68 19 68 30 53 13 -18z"/>
 </g>

</svg>