<!DOCTYPE svg PUBLIC "-//W3C//DTD SVG 20010904//EN" "http://www.w3.org/TR/2001/REC-SVG-20010904/DTD/svg10.dtd">
<svg version="1.0" xmlns="http://www.w3.org/2000/svg" width="217px" height="80px" viewBox="0 0 2170 800" preserveAspectRatio="xMidYMid meet">
<g id="layer101" fill="#0094d1" stroke="none">
 <path d="M50 774 c0 -31 -29 -135 -41 -148 -18 -19 -8 -44 21 -56 17 -7 33 -10 36 -8 2 3 16 45 30 94 14 49 28 97 31 106 4 13 -3 21 -22 28 -42 16 -55 12 -55 -16z"/>
 <path d="M173 743 c-11 -11 -28 -52 -37 -91 -21 -84 -14 -106 43 -123 55 -16 76 -2 96 68 28 96 29 116 7 136 -31 28 -86 33 -109 10z m42 -108 c-20 -68 -33 -66 -15 2 15 55 20 66 27 60 2 -3 -3 -30 -12 -62z"/>
 <path d="M326 688 c-21 -35 -48 -138 -42 -163 11 -45 105 -62 130 -22 22 35 48 137 41 164 -11 45 -104 60 -129 21z m49 -93 c-9 -32 -19 -55 -22 -52 -2 3 3 31 12 62 9 32 19 55 22 52 2 -3 -3 -31 -12 -62z"/>
 <path d="M513 656 c3 -7 16 -63 28 -124 19 -91 27 -112 43 -116 11 -3 22 -4 24 -2 4 5 -37 202 -49 234 -5 13 -17 22 -30 22 -14 0 -19 -5 -16 -14z"/>
 <path d="M610 625 c-7 -9 -13 -32 -14 -52 -1 -33 2 -38 32 -46 40 -12 51 -4 59 48 5 30 2 41 -12 51 -25 18 -50 18 -65 -1z"/>
 <path d="M807 583 c-4 -3 -7 -18 -7 -33 0 -15 -9 -53 -21 -86 -11 -32 -23 -67 -26 -76 -4 -12 4 -19 33 -27 20 -6 41 -8 45 -6 4 3 9 1 11 -4 1 -5 20 -12 41 -16 41 -8 45 1 28 62 -8 26 -6 32 9 36 10 3 21 18 25 36 6 30 19 40 29 22 6 -10 -8 -137 -19 -162 -5 -13 6 -19 52 -32 60 -17 72 -13 73 25 0 9 15 42 33 75 50 87 51 92 21 103 -44 17 -64 13 -64 -15 0 -15 -6 -25 -15 -25 -12 0 -13 4 -3 25 7 16 8 29 2 34 -9 8 -122 41 -141 41 -6 0 -18 -19 -27 -41 -9 -23 -19 -39 -22 -36 -3 3 2 19 10 36 22 42 20 47 -15 60 -37 13 -43 13 -52 4z"/>
 <path d="M439 521 c-15 -49 -2 -71 42 -71 33 0 52 33 47 79 -3 22 -9 26 -40 29 -35 3 -37 1 -49 -37z"/>
 <path d="M1227 464 c-4 -4 -7 -18 -7 -32 0 -21 -3 -23 -25 -18 -40 10 -60 -8 -84 -74 -13 -34 -21 -63 -19 -65 3 -3 155 -45 163 -45 3 0 5 12 5 26 0 31 29 135 41 149 11 11 12 42 2 48 -17 10 -69 17 -76 11z m-31 -151 c-10 -26 -18 -8 -9 23 5 21 8 24 11 11 2 -10 1 -25 -2 -34z"/>
 <path d="M1326 428 c-2 -7 -9 -40 -16 -73 -7 -33 -19 -74 -28 -92 -9 -18 -14 -34 -11 -36 2 -2 37 -13 77 -24 l73 -21 10 25 c14 38 11 54 -12 60 -12 4 -18 11 -15 20 3 8 6 21 6 29 0 10 7 13 25 8 21 -5 26 -1 35 22 17 45 9 57 -55 76 -71 21 -84 22 -89 6z m45 -171 c-8 -8 -11 -7 -11 4 0 20 13 34 18 19 3 -7 -1 -17 -7 -23z"/>
 <path d="M1503 370 c-23 -27 -54 -138 -47 -167 7 -28 51 -53 91 -53 39 0 52 11 59 48 6 28 3 32 -21 38 -21 5 -31 2 -41 -11 -8 -10 -16 -17 -18 -14 -8 7 27 119 37 119 5 0 6 -11 3 -24 -6 -25 7 -36 44 -36 14 0 21 10 26 34 7 43 1 54 -42 72 -46 19 -71 18 -91 -6z"/>
 <path d="M1700 308 c0 -48 -25 -126 -33 -105 -4 10 -15 17 -25 17 -15 0 -22 -11 -30 -42 -6 -23 -10 -43 -9 -44 1 0 39 -11 85 -24 92 -26 99 -23 108 32 6 32 4 36 -21 42 -19 5 -25 11 -21 22 3 9 6 22 6 29 0 8 6 20 14 27 7 8 16 23 20 35 6 18 1 22 -38 32 -59 15 -56 16 -56 -21z"/>
 <path d="M1845 273 c-16 -81 -29 -128 -41 -152 -8 -14 -14 -29 -14 -33 0 -8 100 -38 127 -38 29 0 55 34 51 67 -2 17 4 35 15 46 9 9 17 30 17 45 0 36 -23 57 -78 72 -24 6 -50 14 -57 16 -10 4 -16 -4 -20 -23z m81 -72 c-12 -19 -24 -12 -19 10 4 13 9 17 15 11 6 -6 7 -15 4 -21z"/>
 <path d="M2038 229 c-18 -10 -58 -124 -58 -164 0 -35 34 -59 88 -59 53 -1 60 8 86 108 19 70 10 99 -35 115 -39 13 -59 14 -81 0z m42 -119 c-7 -28 -16 -50 -21 -50 -12 0 -12 3 8 68 19 68 30 53 13 -18z"/>
 </g>

</svg>