<!DOCTYPE svg PUBLIC "-//W3C//DTD SVG 20010904//EN" "http://www.w3.org/TR/2001/REC-SVG-20010904/DTD/svg10.dtd">
<svg version="1.0" xmlns="http://www.w3.org/2000/svg" width="273px" height="130px" viewBox="0 0 2730 1300" preserveAspectRatio="xMidYMid meet">
<g id="layer101" fill="#b71c1b" stroke="none">
 <path d="M153 1288 c-20 -26 -34 -81 -22 -89 8 -5 7 -9 -4 -15 -8 -5 -27 -54 -42 -109 -15 -55 -30 -109 -33 -120 -3 -11 -6 -36 -6 -57 -1 -20 -4 -34 -8 -32 -9 6 -38 -91 -38 -125 0 -32 8 -44 38 -60 33 -18 42 -3 12 19 -20 15 -23 21 -12 31 10 11 12 10 12 -3 0 -9 9 -18 20 -21 13 -3 18 -10 14 -21 -4 -11 2 -19 21 -26 35 -13 38 -10 25 26 l-10 29 19 -22 c11 -13 24 -23 31 -23 6 0 8 -4 5 -10 -3 -5 4 -14 17 -20 46 -21 492 -139 502 -133 5 3 6 1 3 -4 -8 -13 64 -26 89 -16 11 4 15 3 11 -4 -11 -17 17 -22 38 -7 10 8 24 14 29 14 6 0 2 -7 -8 -15 -11 -8 -18 -16 -15 -18 2 -2 49 -14 104 -27 55 -13 114 -28 130 -35 17 -7 95 -29 174 -51 106 -28 146 -35 149 -26 2 6 13 12 24 12 17 0 18 -2 8 -15 -7 -9 -11 -17 -9 -18 2 -2 78 -22 169 -46 91 -23 185 -48 210 -56 94 -31 296 -85 317 -85 12 0 25 -5 28 -10 10 -16 28 -12 22 4 -4 10 -1 13 8 10 7 -3 16 -12 19 -19 5 -13 51 -30 103 -38 12 -2 26 -6 29 -10 4 -4 20 -7 36 -7 19 0 28 5 28 16 0 14 3 14 15 4 13 -10 13 -15 3 -21 -18 -11 -10 -16 57 -30 96 -19 108 -13 133 75 25 85 26 89 12 81 -5 -3 -10 -1 -10 4 0 6 7 11 15 11 14 0 20 24 16 58 -1 6 2 12 7 12 15 0 22 54 9 62 -8 5 -7 8 4 8 10 0 20 19 31 63 9 34 24 92 34 129 18 67 18 68 -2 88 -21 22 -147 60 -196 60 -16 0 -28 5 -28 10 0 6 -16 10 -36 10 -22 0 -33 4 -29 11 4 6 1 9 -6 8 -8 -2 -31 3 -51 10 -21 7 -42 10 -48 6 -5 -3 -10 -1 -10 4 0 6 -7 11 -15 11 -8 0 -15 -7 -15 -15 0 -8 -5 -15 -11 -15 -6 0 -8 8 -4 19 4 15 -4 21 -52 34 -45 13 -60 14 -72 4 -12 -10 -13 -9 -6 2 6 11 4 13 -8 8 -8 -3 -18 0 -20 7 -3 7 -34 18 -69 25 -34 7 -72 17 -83 21 -27 12 -169 53 -275 80 -47 11 -105 27 -130 35 -88 28 -561 155 -575 155 -9 0 -23 4 -33 10 -14 8 -225 68 -297 85 -31 7 -78 20 -250 69 -164 47 -225 55 -242 34z m306 -133 c91 -25 176 -50 188 -55 16 -6 23 -5 27 6 3 8 10 14 15 14 6 0 8 -6 6 -13 -6 -14 70 -41 87 -31 5 4 13 1 17 -5 9 -14 289 -94 302 -86 5 4 16 -1 25 -9 8 -9 22 -16 30 -16 8 0 87 -20 175 -46 144 -41 161 -44 175 -30 20 21 23 20 17 -3 -4 -16 3 -22 39 -31 23 -6 96 -27 162 -46 65 -18 123 -31 127 -28 5 3 9 0 9 -5 0 -15 47 -14 53 2 3 7 6 5 6 -5 1 -17 66 -42 83 -32 4 3 8 1 8 -4 0 -5 19 -13 43 -19 164 -40 508 -137 537 -151 32 -16 35 -21 35 -62 0 -25 -3 -47 -6 -50 -4 -3 -16 -41 -28 -85 -71 -271 -67 -260 -96 -263 -15 -2 -63 6 -106 18 -44 11 -84 18 -89 15 -6 -3 -10 -1 -10 5 0 7 -12 9 -30 7 -17 -3 -29 -1 -27 5 2 12 -151 57 -218 65 -22 3 -45 9 -51 14 -6 5 -32 15 -58 23 -39 12 -46 12 -46 0 0 -8 -4 -14 -10 -14 -10 0 -14 15 -11 34 1 5 -16 6 -39 3 -27 -3 -42 -1 -48 8 -4 7 -50 25 -102 39 -305 85 -300 84 -355 75 -11 -2 -20 1 -20 8 0 6 -3 14 -6 18 -14 14 -534 151 -540 143 -3 -5 -14 -2 -23 7 -9 9 -23 15 -31 12 -7 -3 -15 -2 -17 3 -2 5 -109 38 -238 74 -284 78 -262 70 -290 108 -16 22 -18 30 -8 25 11 -4 17 2 21 19 2 14 -1 24 -7 24 -6 0 -4 4 4 10 8 5 11 12 7 16 -4 4 0 12 8 18 8 6 17 29 19 51 2 22 11 57 20 77 9 21 16 47 16 58 0 12 4 29 9 39 6 10 12 30 14 46 3 25 22 42 51 44 5 1 84 -19 175 -44z m1364 -312 c14 -8 7 -33 -10 -32 -11 0 -13 3 -5 6 18 7 15 23 -5 23 -10 0 -25 5 -33 10 -11 8 -7 9 15 4 17 -4 33 -9 38 -11z"/>
 </g>
<g id="layer102" fill="#b63d46" stroke="none">
 <path d="M150 1284 c-12 -16 -12 -17 0 -6 17 15 56 16 65 1 4 -6 19 -7 35 -4 19 4 45 -1 74 -14 25 -11 48 -16 51 -11 7 11 -93 40 -160 47 -42 4 -53 2 -65 -13z"/>
 <path d="M129 1233 c-7 -19 -6 -28 2 -34 8 -5 7 -9 -4 -15 -21 -12 -103 -315 -89 -329 3 -3 15 -5 26 -5 20 1 20 2 3 14 -24 19 -21 29 8 24 13 -3 26 0 29 6 2 7 9 4 17 -7 21 -26 48 -2 53 48 2 22 11 57 20 77 9 21 16 47 16 58 0 12 4 29 9 39 6 10 12 30 14 46 6 46 41 51 142 22 47 -13 85 -22 85 -18 0 4 -39 16 -87 29 -78 19 -93 20 -136 9 -32 -9 -44 -16 -37 -23 7 -7 7 -11 -2 -12 -7 -1 -28 -5 -45 -8 -20 -4 -33 -2 -33 4 0 10 29 26 43 24 14 -4 7 16 -9 22 -11 4 -15 14 -12 31 7 33 0 32 -13 -2z m91 -90 c-1 -22 -27 -78 -39 -81 -7 -1 -10 2 -6 8 3 5 1 10 -4 10 -6 0 -11 -4 -11 -10 0 -5 -11 -10 -24 -10 -14 0 -28 5 -31 10 -3 6 -1 10 6 10 6 0 9 8 6 20 -5 18 -1 20 30 18 25 -2 40 3 47 15 11 17 26 23 26 10z m-84 -100 c-15 -4 -16 -7 -5 -13 7 -5 21 -4 32 2 14 7 17 7 13 -1 -4 -6 -2 -11 4 -11 7 0 7 -7 -1 -22 l-12 -22 -17 22 c-10 12 -30 22 -44 22 -23 0 -33 10 -22 21 3 2 19 5 38 5 18 1 24 -1 14 -3z m-47 -57 c8 -10 8 -16 -2 -24 -10 -8 -13 -5 -15 14 -2 28 1 30 17 10z m46 -16 c-3 -5 1 -10 9 -10 9 0 16 -4 16 -10 0 -5 -7 -10 -16 -10 -13 0 -15 -6 -9 -27 6 -27 6 -27 -14 -9 -14 13 -28 16 -47 12 -19 -5 -25 -3 -21 6 2 8 18 12 37 11 22 -1 29 2 20 7 -11 7 -11 11 -1 24 15 17 36 22 26 6z"/>
 <path d="M435 1234 c11 -8 19 -20 18 -25 -2 -5 4 -9 12 -9 14 0 17 -5 19 -40 1 -8 10 -16 21 -18 11 -2 17 -1 13 3 -4 5 0 14 10 21 16 12 15 14 -8 36 -13 13 -27 23 -30 24 -3 0 -13 4 -22 7 -45 17 -54 18 -33 1z"/>
 <path d="M550 1199 c0 -5 6 -10 13 -10 6 -1 25 -3 41 -5 38 -4 27 6 -18 16 -21 4 -36 4 -36 -1z"/>
 <path d="M640 1170 c0 -22 28 -34 46 -20 9 8 24 8 54 0 23 -6 44 -9 46 -7 3 2 -16 10 -42 16 -35 9 -49 9 -60 0 -12 -9 -13 -9 -9 3 4 10 -1 17 -14 21 -16 4 -21 0 -21 -13z"/>
 <path d="M545 1130 c11 -5 29 -8 40 -8 16 0 15 2 -5 8 -34 11 -60 11 -35 0z"/>
 <path d="M813 1133 c9 -2 14 -9 11 -15 -4 -6 -2 -8 3 -5 6 4 25 4 43 1 25 -5 31 -11 27 -25 -6 -24 2 -24 20 -1 13 15 13 15 7 -8 -6 -22 -5 -23 9 -11 17 13 97 7 97 -8 0 -4 13 -8 30 -8 44 0 28 12 -37 26 -32 7 -67 17 -78 21 -28 12 -131 40 -142 39 -4 -1 0 -3 10 -6z"/>
 <path d="M661 1116 c-19 -10 -20 -14 -8 -19 9 -3 18 1 21 9 8 20 27 17 19 -3 -3 -10 -3 -15 2 -11 4 4 16 3 26 -3 15 -7 19 -6 19 5 0 9 -6 13 -14 10 -7 -3 -16 2 -19 10 -8 19 -15 19 -46 2z"/>
 <path d="M797 1087 c3 -15 10 -28 17 -29 6 0 16 -2 21 -2 6 -1 15 -4 20 -8 6 -3 27 -11 48 -16 33 -9 37 -9 27 3 -7 8 -16 13 -20 10 -5 -3 -21 0 -37 7 -15 6 -31 12 -34 12 -4 1 -16 12 -27 26 l-20 25 5 -28z"/>
 <path d="M1100 1041 c0 -13 6 -21 16 -21 14 0 15 2 3 17 -13 15 -12 15 18 -1 18 -9 36 -15 40 -14 4 1 23 -2 41 -6 18 -4 36 -6 38 -3 3 2 -24 12 -59 20 -35 9 -71 19 -80 23 -13 4 -17 1 -17 -15z"/>
 <path d="M990 1031 c0 -11 5 -23 10 -26 6 -3 10 -2 10 4 0 5 3 16 6 25 4 11 1 16 -10 16 -9 0 -16 -8 -16 -19z"/>
 <path d="M956 1031 c-3 -5 1 -11 9 -15 9 -3 15 0 15 9 0 16 -16 20 -24 6z"/>
 <path d="M1068 1020 c-7 -11 -16 -20 -21 -20 -4 0 -5 4 -2 10 4 6 -1 7 -12 3 -14 -6 -11 -9 16 -20 19 -8 40 -12 48 -9 8 3 21 -1 29 -9 9 -8 24 -15 34 -15 10 0 26 -3 36 -7 12 -4 15 -3 10 5 -4 7 -16 12 -26 12 -11 0 -34 9 -52 19 -17 11 -35 18 -39 15 -4 -2 -5 5 -2 16 7 26 -3 26 -19 0z"/>
 <path d="M1150 998 c0 -16 45 -22 68 -8 14 8 13 9 -8 8 -14 0 -33 3 -42 7 -12 5 -18 3 -18 -7z"/>
 <path d="M1271 1007 c2 -1 15 -11 28 -22 14 -11 21 -14 16 -6 -6 11 -4 13 9 8 10 -4 22 -7 27 -7 5 0 9 -5 9 -11 0 -6 -7 -9 -15 -5 -8 3 -15 1 -15 -4 0 -6 5 -10 12 -10 9 0 9 -3 0 -12 -17 -17 -15 -28 6 -28 11 0 13 3 5 8 -8 5 -6 14 8 30 15 20 24 22 51 17 59 -13 25 2 -55 24 -72 20 -96 25 -86 18z"/>
 <path d="M1277 946 c-16 -13 -16 -14 5 -20 35 -9 45 -7 24 5 -15 9 -16 13 -5 20 8 5 10 9 4 9 -5 -1 -18 -7 -28 -14z"/>
 <path d="M1460 952 c8 -5 32 -12 53 -16 20 -4 37 -9 37 -12 0 -10 -28 -33 -33 -28 -3 4 -16 -1 -29 -10 -18 -13 -19 -16 -5 -16 9 0 17 5 17 10 0 6 5 10 10 10 6 0 10 -6 10 -14 0 -8 7 -17 16 -20 23 -9 31 -7 14 4 -13 8 -12 11 5 25 19 14 19 15 1 8 -13 -4 -17 -3 -12 5 13 21 73 14 96 -10 18 -19 22 -20 30 -8 7 11 3 18 -18 27 -15 7 -37 12 -48 13 -12 0 -37 6 -55 14 -42 17 -110 31 -89 18z"/>
 <path d="M1385 900 c28 -12 37 -12 30 0 -3 6 -16 10 -28 9 -21 0 -21 -1 -2 -9z"/>
 <path d="M1436 903 c-11 -11 -6 -23 9 -23 8 0 15 4 15 9 0 13 -16 22 -24 14z"/>
 <path d="M1725 880 c3 -4 26 -14 51 -21 29 -9 50 -22 55 -34 7 -18 8 -18 8 -2 1 10 5 16 9 13 4 -2 14 0 22 6 13 8 12 9 -1 5 -9 -3 -21 -1 -27 5 -12 12 -124 39 -117 28z"/>
 <path d="M119 861 c-1 -3 -1 -9 -1 -12 1 -3 -10 -12 -24 -19 -30 -17 -28 -44 4 -48 16 -3 22 -8 18 -18 -3 -8 -2 -13 3 -9 12 7 52 -45 44 -57 -3 -6 -9 -4 -15 6 -5 9 -13 16 -19 16 -14 0 24 -49 38 -50 7 0 12 -5 10 -11 -1 -7 13 -18 31 -25 19 -8 32 -10 32 -4 0 5 -7 10 -16 10 -9 0 -27 11 -40 25 -21 23 -22 26 -7 32 9 4 19 1 21 -5 7 -23 34 -42 58 -42 33 0 30 18 -3 26 -37 9 -44 14 -38 24 3 5 19 4 37 -1 17 -5 27 -5 22 -1 -5 5 -34 16 -65 25 -39 12 -62 26 -79 49 -16 22 -18 29 -8 25 11 -4 17 2 21 19 2 13 0 24 -6 24 -5 0 -5 5 2 13 8 10 7 14 -4 14 -8 0 -16 -3 -16 -6z m1 -51 c-19 -13 -30 -13 -30 0 0 6 10 10 23 10 18 0 19 -2 7 -10z"/>
 <path d="M11 806 c-6 -27 -10 -50 -8 -52 7 -7 30 73 25 87 -2 7 -10 -8 -17 -35z"/>
 <path d="M1600 847 c0 -3 15 -10 32 -16 18 -6 28 -7 23 -2 -12 10 -55 25 -55 18z"/>
 <path d="M1774 836 c22 -18 46 -21 46 -6 0 6 -6 10 -14 10 -8 0 -23 3 -33 6 -16 5 -16 4 1 -10z"/>
 <path d="M1940 820 c12 -8 12 -11 -3 -28 -9 -10 -17 -25 -17 -33 0 -8 3 -10 8 -4 4 6 16 10 27 10 26 0 32 33 8 50 -10 8 -22 14 -28 15 -5 0 -3 -4 5 -10z"/>
 <path d="M1768 794 c18 -8 46 -16 62 -17 17 -2 33 -7 37 -10 21 -21 63 9 47 34 -10 17 -25 9 -19 -11 5 -14 2 -20 -9 -20 -9 0 -16 4 -16 9 0 5 -15 9 -32 9 -18 0 -46 5 -61 11 -41 16 -48 12 -9 -5z"/>
 <path d="M2032 789 c2 -6 8 -10 13 -10 5 0 11 4 13 10 2 6 -4 11 -13 11 -9 0 -15 -5 -13 -11z"/>
 <path d="M2101 774 c-1 -16 26 -37 39 -29 14 9 1 28 -15 21 -8 -3 -16 0 -19 7 -3 8 -5 8 -5 1z"/>
 <path d="M32 744 c-8 -8 -11 -23 -8 -32 5 -13 3 -13 -9 2 -8 11 -15 15 -15 9 0 -16 30 -44 40 -38 5 3 10 -1 13 -7 2 -7 8 -9 13 -5 5 5 -2 17 -16 27 -20 15 -23 21 -12 31 10 11 12 10 12 -3 0 -9 9 -18 20 -21 13 -3 18 -10 14 -21 -4 -11 2 -19 21 -26 36 -14 40 -8 21 31 -13 26 -14 34 -4 41 8 4 -4 8 -29 8 -23 0 -43 4 -45 9 -1 5 -9 2 -16 -5z"/>
 <path d="M1986 744 c-6 -16 10 -19 19 -4 3 6 12 10 18 9 9 0 9 -2 0 -6 -18 -7 -16 -23 3 -23 9 0 14 7 12 18 -4 20 -45 25 -52 6z"/>
 <path d="M2200 749 c0 -5 9 -9 20 -9 12 0 24 -10 30 -24 13 -34 30 -42 37 -16 4 16 8 18 14 8 7 -11 10 -10 21 1 10 10 10 12 1 7 -7 -4 -13 -2 -13 3 0 6 -7 11 -15 11 -8 0 -15 -7 -15 -15 0 -8 -5 -15 -11 -15 -6 0 -8 8 -5 18 5 15 -1 21 -29 29 -20 6 -35 7 -35 2z"/>
 <path d="M2110 714 c-14 -7 -22 -14 -17 -14 4 0 38 -8 75 -19 l67 -18 1 23 c2 28 -4 30 -21 7 -11 -15 -14 -14 -35 10 -26 30 -34 31 -70 11z"/>
 <path d="M2379 697 c16 -20 37 -22 47 -6 4 7 1 10 -7 7 -8 -3 -23 -1 -34 5 -18 9 -19 9 -6 -6z"/>
 <path d="M2450 670 c55 -16 70 -23 65 -30 -3 -5 6 -3 20 3 24 12 24 12 -10 15 -19 2 -35 7 -35 13 0 5 -15 8 -32 8 -31 -1 -31 -2 -8 -9z"/>
 <path d="M2252 666 c10 -12 98 -36 98 -27 0 5 -16 12 -36 15 -19 4 -43 10 -52 13 -9 3 -14 3 -10 -1z"/>
 <path d="M2350 663 c0 -22 28 -42 65 -47 l40 -6 -40 13 c-22 6 -40 18 -40 26 0 8 -6 16 -12 19 -7 2 -13 0 -13 -5z"/>
 <path d="M468 641 c8 -4 12 -10 11 -12 -4 -6 34 -49 43 -49 15 0 8 29 -9 39 -14 8 -15 11 -3 11 18 2 -17 18 -40 19 -12 1 -12 -1 -2 -8z"/>
 <path d="M261 631 c-11 -7 -9 -10 8 -16 13 -4 25 -4 28 -1 4 3 -1 6 -11 6 -9 0 -14 5 -11 10 8 12 4 12 -14 1z"/>
 <path d="M2625 630 c11 -5 27 -9 35 -9 9 0 8 4 -5 9 -11 5 -27 9 -35 9 -9 0 -8 -4 5 -9z"/>
 <path d="M2698 604 c20 -14 22 -22 18 -62 l-5 -47 11 43 c9 36 8 45 -7 62 -10 11 -23 20 -29 20 -6 0 0 -7 12 -16z"/>
 <path d="M651 583 c36 -18 54 -34 51 -42 -3 -8 3 -20 13 -27 16 -12 16 -13 -3 -11 -11 0 -19 4 -16 8 2 4 -2 7 -9 6 -38 -1 -58 5 -64 19 -3 9 0 20 8 25 10 6 7 8 -11 6 -17 -3 -25 -10 -25 -23 0 -10 5 -19 10 -20 6 0 19 -4 30 -8 89 -34 107 -35 128 -10 22 28 22 34 -3 34 -11 0 -20 5 -20 10 0 13 4 13 69 -5 30 -8 50 -10 45 -6 -18 16 -123 40 -126 29 -2 -6 -11 -3 -21 7 -10 9 -24 15 -32 12 -7 -3 -15 -2 -17 3 -2 5 -16 12 -33 15 -21 5 -12 -2 26 -22z"/>
 <path d="M2505 590 c11 -5 27 -9 35 -9 9 0 8 4 -5 9 -11 5 -27 9 -35 9 -9 0 -8 -4 5 -9z"/>
 <path d="M2560 586 c0 -2 17 -14 38 -26 l37 -21 -27 25 c-24 23 -48 34 -48 22z"/>
 <path d="M526 551 c5 -5 20 -12 34 -15 l25 -7 -25 15 c-28 17 -50 21 -34 7z"/>
 <path d="M876 529 c3 -5 14 -9 25 -9 11 0 22 -7 25 -15 4 -8 10 -15 16 -15 5 0 7 4 4 9 -4 5 -3 11 1 14 5 2 3 2 -4 1 -7 -2 -15 1 -18 5 -2 5 -16 11 -30 13 -13 3 -22 1 -19 -3z"/>
 <path d="M2628 510 c-1 -11 -2 -28 -2 -37 -1 -10 -4 -20 -7 -23 -3 -3 -9 -18 -13 -35 -4 -16 -3 -25 1 -18 14 19 30 1 30 -34 0 -20 -5 -29 -13 -26 -6 2 -15 -1 -19 -7 -6 -9 -10 -9 -16 1 -6 10 -8 8 -8 -6 0 -11 -9 -47 -20 -80 -12 -33 -24 -77 -28 -98 -3 -20 -9 -40 -13 -42 -14 -8 -54 -9 -77 -1 -14 5 -23 3 -23 -3 0 -6 11 -11 25 -11 16 0 25 -6 25 -15 0 -20 7 -19 32 5 12 10 25 17 30 14 8 -5 12 8 9 38 -1 10 2 18 7 18 14 0 22 -38 9 -43 -8 -2 -7 -6 1 -11 7 -4 12 -2 12 3 0 6 5 11 11 11 7 0 9 -13 6 -38 -4 -26 0 -20 13 23 23 69 24 79 10 70 -5 -3 -10 -1 -10 4 0 6 7 11 15 11 13 0 21 26 16 54 -1 5 2 12 7 15 5 3 12 20 15 36 3 17 4 25 1 18 -3 -7 -12 -9 -20 -6 -21 8 -17 19 7 20 26 2 25 1 34 42 5 22 4 31 -3 27 -6 -3 -13 -2 -17 4 -3 5 -1 10 4 10 6 0 11 4 11 9 0 5 -8 7 -19 4 -23 -6 -39 16 -20 27 7 5 17 6 21 4 4 -3 8 2 8 11 0 8 -6 18 -14 21 -8 3 -11 15 -8 30 2 13 2 24 -2 24 -3 0 -7 -9 -8 -20z m7 -250 c-3 -5 -15 -10 -26 -10 -11 0 -19 -7 -19 -16 0 -10 6 -14 14 -11 10 4 14 0 13 -14 -1 -10 -10 -22 -20 -25 -14 -4 -16 -9 -8 -17 6 -6 11 -19 11 -30 0 -15 -4 -14 -26 10 -14 15 -21 29 -15 31 6 2 9 8 6 13 -3 5 -3 24 1 44 6 32 9 35 41 35 20 0 32 -4 28 -10z"/>
 <path d="M766 494 c-5 -12 -1 -14 15 -9 13 5 19 3 15 -3 -10 -16 18 -21 39 -6 10 8 24 14 29 14 6 0 2 -7 -8 -15 -11 -8 -18 -16 -15 -18 10 -7 102 -27 106 -23 2 2 -9 7 -25 11 -21 4 -32 14 -36 31 -7 28 -31 31 -58 7 -16 -14 -18 -14 -18 -1 0 9 -7 19 -16 22 -21 8 -21 8 -28 -10z"/>
 <path d="M1023 482 c11 -11 16 -25 13 -31 -8 -12 57 -26 73 -17 16 11 -9 44 -39 51 -14 3 -34 9 -45 12 -20 6 -20 5 -2 -15z"/>
 <path d="M2673 466 c19 -20 23 -21 29 -7 10 25 10 26 -22 28 l-30 2 23 -23z"/>
 <path d="M1146 451 c-3 -5 1 -15 10 -22 12 -10 17 -10 23 0 11 18 92 -4 85 -23 -7 -19 21 -27 52 -16 30 12 171 -24 191 -48 7 -8 19 -12 28 -8 9 3 14 2 11 -2 -2 -4 21 -7 52 -8 l57 -1 -45 12 c-262 73 -262 73 -315 64 -12 -3 -20 2 -20 11 0 9 -20 22 -50 32 -59 19 -72 21 -79 9z"/>
 <path d="M1030 421 c0 -5 8 -11 18 -15 9 -3 24 -9 32 -12 8 -4 3 3 -12 15 -28 23 -38 26 -38 12z"/>
 <path d="M1190 400 c0 -5 7 -10 15 -10 8 0 15 5 15 10 0 6 -7 10 -15 10 -8 0 -15 -4 -15 -10z"/>
 <path d="M1296 343 c-4 -10 -4 -14 0 -10 4 4 12 3 18 -2 18 -15 86 -25 86 -12 0 6 10 11 22 11 17 0 19 -3 10 -12 -15 -15 -15 -28 0 -28 6 0 8 3 5 7 -4 3 0 15 10 25 15 17 14 18 -20 18 -19 0 -37 -5 -39 -10 -2 -6 -16 -8 -35 -4 -21 4 -30 11 -26 20 3 8 -1 14 -10 14 -8 0 -18 -8 -21 -17z"/>
 <path d="M1715 299 c11 -7 23 -17 27 -23 4 -6 9 -8 12 -5 9 9 -9 26 -34 33 -23 6 -23 6 -5 -5z"/>
 <path d="M1456 291 c5 -5 27 -12 49 -15 l40 -6 -45 15 c-53 17 -57 18 -44 6z"/>
 <path d="M1820 258 c22 -24 25 -35 9 -40 -12 -4 -1 -38 13 -38 7 0 6 5 -1 14 -9 11 -8 15 5 20 22 8 26 8 19 -4 -3 -5 -1 -10 5 -10 8 0 10 9 6 26 -6 21 -4 25 11 22 10 -2 18 -10 18 -18 0 -10 12 -16 34 -18 50 -5 35 20 -25 39 -40 13 -50 13 -52 2 -7 -28 -28 -10 -23 20 0 4 -8 7 -19 7 l-21 0 21 -22z"/>
 <path d="M1595 250 c11 -5 27 -9 35 -9 9 0 8 4 -5 9 -11 5 -27 9 -35 9 -9 0 -8 -4 5 -9z"/>
 <path d="M2018 211 c42 -11 48 -17 32 -36 -7 -9 -10 -18 -7 -21 6 -6 48 16 58 30 4 5 12 5 19 1 8 -5 11 -4 7 2 -7 11 -44 21 -107 28 l-35 4 33 -8z"/>
 <path d="M2148 164 c2 -13 8 -24 12 -24 5 0 16 -3 24 -6 12 -5 15 -2 10 10 -4 11 -1 16 10 16 9 0 16 -7 16 -15 0 -16 16 -20 24 -6 8 13 -14 27 -60 38 -39 10 -41 9 -36 -13z"/>
 <path d="M1895 170 c3 -4 16 -10 30 -12 13 -3 22 -2 20 2 -3 4 -16 10 -30 12 -13 3 -22 2 -20 -2z"/>
 <path d="M1964 151 c3 -4 40 -15 83 -25 43 -10 86 -23 97 -28 13 -7 21 -6 28 4 7 10 10 10 19 -4 5 -10 15 -18 21 -18 6 0 -1 11 -17 25 -17 17 -31 23 -38 17 -8 -6 -25 -4 -47 4 -19 8 -24 12 -11 10 18 -4 21 -2 12 7 -9 9 -16 9 -30 0 -14 -9 -31 -9 -70 2 -28 7 -49 10 -47 6z"/>
 <path d="M2318 131 c12 -6 22 -15 22 -20 0 -5 3 -18 6 -28 5 -14 4 -15 -4 -4 -9 12 -13 12 -26 2 -17 -14 -22 -36 -7 -26 5 3 12 1 16 -5 3 -5 14 -10 23 -9 11 0 13 2 4 6 -10 4 -10 8 -2 18 16 19 20 65 6 65 -6 0 -22 3 -36 5 -24 5 -24 5 -2 -4z"/>
 <path d="M2245 70 c11 -5 27 -9 35 -9 9 0 8 4 -5 9 -11 5 -27 9 -35 9 -9 0 -8 -4 5 -9z"/>
 <path d="M2380 61 c-7 -14 -7 -21 0 -21 5 0 10 7 10 16 0 14 2 14 16 3 10 -8 12 -15 5 -17 -15 -5 -14 -22 2 -22 19 0 17 27 -4 46 -16 14 -18 14 -29 -5z"/>
 <path d="M2472 18 c3 -7 15 -14 29 -15 14 -1 17 0 7 3 -10 3 -18 10 -18 15 0 5 -5 9 -11 9 -6 0 -9 -6 -7 -12z"/>
 <path d="M2550 13 c-14 -7 -18 -13 -10 -13 17 0 47 17 40 23 -3 2 -16 -2 -30 -10z"/>
 </g>
<g id="layer103" fill="#c35353" stroke="none">
 <path d="M180 1293 c8 -2 25 -9 37 -15 25 -12 39 -6 28 11 -3 6 -23 11 -43 10 -20 0 -30 -3 -22 -6z"/>
 <path d="M275 1280 c11 -5 27 -9 35 -9 9 0 8 4 -5 9 -11 5 -27 9 -35 9 -9 0 -8 -4 5 -9z"/>
 <path d="M344 1255 c10 -8 23 -12 28 -9 13 8 5 14 -23 19 -23 4 -23 4 -5 -10z"/>
 <path d="M128 1230 c-4 -14 -3 -27 4 -31 7 -4 5 -10 -5 -15 -8 -5 -27 -54 -42 -109 -45 -165 -55 -216 -44 -209 5 3 9 0 9 -5 0 -6 8 -11 18 -11 16 1 16 1 0 11 -26 15 -22 32 7 27 13 -3 26 0 29 6 3 7 8 7 14 -3 16 -22 52 -4 54 27 3 51 4 57 17 82 l12 25 -18 -23 -19 -23 -19 21 c-10 11 -24 19 -30 16 -17 -6 -39 10 -31 23 5 8 15 7 35 -4 16 -8 31 -12 34 -8 4 3 17 6 29 7 18 1 23 7 25 31 2 23 1 26 -6 11 -5 -12 -10 -16 -14 -9 -5 8 -14 8 -31 0 -16 -8 -21 -14 -13 -19 9 -6 8 -8 -2 -8 -14 0 -40 28 -41 43 0 5 5 5 12 1 8 -5 9 0 5 15 -5 19 -2 21 30 19 24 -1 39 3 48 15 18 25 28 21 21 -10 -5 -20 -4 -24 3 -12 5 8 12 28 14 44 2 16 12 32 23 37 15 7 14 7 -6 3 -14 -2 -34 -5 -45 -5 l-20 -1 20 -16 c15 -11 15 -14 3 -10 -9 3 -24 0 -34 -7 -18 -14 -54 -10 -54 5 0 12 36 30 44 22 3 -3 6 -2 6 4 0 6 -6 13 -14 16 -8 3 -16 16 -18 29 l-3 23 -7 -25z m-39 -244 c9 -10 8 -16 -4 -26 -13 -11 -15 -8 -15 14 0 30 3 32 19 12z m47 -15 c-3 -5 4 -12 17 -16 l22 -8 -23 -4 c-18 -4 -21 -9 -16 -30 7 -25 7 -25 -19 -8 -16 10 -34 14 -48 10 -16 -5 -20 -3 -17 6 3 9 19 13 39 13 19 -1 28 0 22 3 -26 9 -12 39 20 42 5 1 6 -3 3 -8z"/>
 <path d="M469 1217 l-24 -9 24 -9 c16 -7 22 -15 18 -28 -3 -12 1 -22 10 -25 23 -9 30 -7 13 4 -13 8 -13 10 2 10 29 0 31 20 5 44 -19 18 -29 21 -48 13z"/>
 <path d="M550 1199 c0 -5 6 -10 13 -10 6 -1 25 -3 41 -5 38 -4 27 6 -18 16 -21 4 -36 4 -36 -1z"/>
 <path d="M365 1180 c11 -5 27 -9 35 -9 9 0 8 4 -5 9 -11 5 -27 9 -35 9 -9 0 -8 -4 5 -9z"/>
 <path d="M641 1179 c-1 -26 26 -44 43 -30 11 9 25 9 56 1 23 -6 44 -9 46 -7 3 2 -16 10 -42 16 -35 9 -49 9 -60 0 -12 -10 -13 -9 -7 6 5 14 3 17 -10 12 -8 -3 -18 -1 -21 6 -2 7 -5 5 -5 -4z"/>
 <path d="M813 1133 c9 -2 14 -9 11 -15 -4 -6 -2 -8 3 -5 6 4 25 4 43 1 25 -5 31 -11 27 -25 -6 -24 2 -24 20 -1 13 15 13 15 7 -8 -6 -22 -5 -23 9 -11 17 13 97 7 97 -8 0 -5 13 -8 29 -7 43 2 29 11 -36 25 -32 7 -67 17 -78 21 -28 12 -131 40 -142 39 -4 -1 0 -3 10 -6z"/>
 <path d="M661 1116 c-19 -10 -20 -14 -8 -19 9 -3 18 1 21 9 8 20 27 17 19 -3 -3 -10 -3 -15 2 -11 4 4 16 3 26 -3 13 -6 19 -6 19 1 0 5 -6 10 -14 10 -8 0 -16 7 -20 15 -7 18 -14 18 -45 1z"/>
 <path d="M798 1085 c3 -19 8 -23 15 -16 8 8 7 16 -5 27 -14 14 -15 14 -10 -11z"/>
 <path d="M861 1046 c2 -2 22 -9 43 -15 29 -8 36 -7 28 1 -6 6 -26 13 -43 15 -18 2 -31 1 -28 -1z"/>
 <path d="M990 1031 c0 -11 5 -23 10 -26 6 -3 10 -2 10 4 0 5 3 16 6 25 4 11 1 16 -10 16 -9 0 -16 -8 -16 -19z"/>
 <path d="M1068 1020 c-7 -11 -16 -20 -21 -20 -4 0 -5 4 -2 10 4 6 -1 7 -12 3 -14 -6 -11 -9 16 -20 19 -8 40 -12 48 -9 8 3 21 -1 29 -9 9 -8 24 -15 34 -15 10 0 26 -3 36 -7 12 -4 15 -3 10 5 -4 7 -16 12 -26 12 -11 0 -34 9 -52 19 -17 11 -35 18 -39 15 -4 -2 -5 5 -2 16 7 26 -3 26 -19 0z"/>
 <path d="M1160 1031 c0 -5 8 -10 18 -9 9 0 33 -3 52 -6 25 -5 29 -4 15 2 -36 17 -85 24 -85 13z"/>
 <path d="M1150 998 c0 -16 45 -22 68 -8 14 8 13 9 -8 8 -14 0 -33 3 -42 7 -12 5 -18 3 -18 -7z"/>
 <path d="M1283 1003 c9 -2 17 -8 17 -13 0 -4 6 -8 13 -7 31 1 47 -4 47 -14 0 -6 -7 -8 -16 -5 -13 5 -14 4 -6 -7 7 -8 11 -16 9 -18 -1 -3 6 4 15 14 14 14 25 17 50 12 18 -4 31 -5 28 -2 -6 6 -157 47 -168 46 -4 -1 1 -3 11 -6z"/>
 <path d="M1277 946 c-16 -13 -16 -14 5 -20 35 -9 45 -7 24 5 -15 9 -16 13 -5 20 8 5 10 9 4 9 -5 -1 -18 -7 -28 -14z"/>
 <path d="M1460 950 c8 -5 26 -9 40 -9 l25 1 -25 8 c-14 4 -32 8 -40 9 -13 1 -13 0 0 -9z"/>
 <path d="M1540 905 c-7 -8 -16 -12 -21 -9 -5 3 -19 -2 -31 -10 -18 -13 -19 -16 -5 -16 9 0 17 5 17 10 0 6 5 10 10 10 6 0 10 -7 10 -15 0 -8 2 -15 4 -15 2 0 13 -3 23 -6 16 -6 16 -5 -2 9 -17 14 -18 16 -3 17 9 0 20 4 23 10 4 6 -1 7 -12 3 -12 -4 -15 -3 -8 5 6 5 19 12 30 15 19 4 19 5 -1 6 -12 0 -27 -6 -34 -14z"/>
 <path d="M1610 913 c8 -3 23 -15 32 -27 15 -18 19 -19 28 -6 7 12 3 18 -18 27 -15 7 -34 12 -42 12 -13 -1 -13 -1 0 -6z"/>
 <path d="M1385 900 c28 -12 37 -12 30 0 -3 6 -16 10 -28 9 -21 0 -21 -1 -2 -9z"/>
 <path d="M1760 865 c14 -8 33 -14 43 -15 10 0 22 -10 27 -22 8 -22 9 -22 9 4 1 23 -5 29 -36 37 -53 15 -73 13 -43 -4z"/>
 <path d="M11 806 c-6 -25 -11 -48 -10 -53 1 -13 21 40 26 70 7 43 -3 32 -16 -17z"/>
 <path d="M1770 839 c0 -5 4 -9 9 -9 5 0 16 -3 25 -6 9 -3 16 -2 16 4 0 5 -11 12 -25 14 -14 3 -25 1 -25 -3z"/>
 <path d="M86 824 c-23 -17 -14 -44 15 -44 15 0 19 -4 15 -16 -3 -8 -2 -12 4 -9 5 3 19 -8 32 -25 12 -17 28 -28 35 -26 7 3 13 -1 13 -9 0 -21 29 -45 56 -45 13 0 24 4 24 9 0 11 -25 21 -51 21 -21 0 -24 11 -8 27 8 8 2 13 -21 18 -25 6 -110 75 -110 91 0 13 39 1 42 -13 3 -13 6 -10 9 8 5 22 2 27 -16 27 -12 0 -29 -6 -39 -14z"/>
 <path d="M1939 821 c8 -5 10 -14 6 -21 -5 -8 -4 -11 3 -6 6 3 13 2 17 -4 4 -6 -5 -10 -19 -10 -18 0 -26 -5 -25 -17 0 -10 3 -13 5 -6 3 7 11 10 18 7 12 -5 33 12 36 29 2 10 -31 36 -45 37 -5 0 -4 -4 4 -9z"/>
 <path d="M1894 794 c3 -9 6 -21 6 -27 0 -7 5 -4 11 6 11 18 5 37 -13 37 -5 0 -7 -7 -4 -16z"/>
 <path d="M1799 785 c24 -8 47 -12 52 -10 4 3 10 1 14 -5 3 -5 11 -10 16 -10 6 0 4 6 -3 13 -7 7 -22 13 -33 13 -11 0 -36 3 -55 7 -29 5 -28 4 9 -8z"/>
 <path d="M2036 785 c4 -8 10 -12 15 -9 14 8 10 24 -6 24 -9 0 -12 -6 -9 -15z"/>
 <path d="M2120 755 c0 -9 5 -15 11 -13 6 2 11 8 11 13 0 5 -5 11 -11 13 -6 2 -11 -4 -11 -13z"/>
 <path d="M33 744 c-7 -7 -13 -18 -13 -24 0 -6 -4 -8 -10 -5 -5 3 -7 0 -4 -9 3 -8 12 -17 19 -20 10 -3 12 2 9 19 -2 13 0 27 6 30 5 3 10 0 10 -8 0 -8 9 -17 20 -20 13 -3 18 -10 14 -21 -4 -11 2 -19 21 -26 36 -14 40 -8 21 31 -13 26 -14 34 -4 41 8 4 -4 8 -29 8 -23 0 -43 4 -45 9 -1 5 -9 3 -15 -5z"/>
 <path d="M1986 744 c-6 -16 10 -19 19 -4 8 13 25 13 25 -1 0 -5 -4 -7 -10 -4 -5 3 -10 1 -10 -4 0 -6 7 -11 16 -11 9 0 14 7 12 18 -4 20 -45 25 -52 6z"/>
 <path d="M2250 718 c0 -19 2 -20 10 -8 13 19 13 30 0 30 -5 0 -10 -10 -10 -22z"/>
 <path d="M2113 716 c-22 -12 -22 -13 16 -24 47 -15 51 -15 51 -1 0 13 -25 39 -37 38 -4 -1 -18 -7 -30 -13z"/>
 <path d="M2277 708 c-4 -12 -4 -24 -1 -27 3 -3 7 5 11 17 4 17 9 20 18 12 10 -8 15 -8 21 1 4 8 3 9 -4 5 -7 -4 -12 -2 -12 3 0 20 -28 11 -33 -11z"/>
 <path d="M2213 691 l-22 -19 22 -4 c17 -3 22 1 23 19 1 13 1 23 0 23 0 -1 -11 -9 -23 -19z"/>
 <path d="M2384 696 c23 -19 32 -20 42 -5 4 7 1 10 -7 7 -8 -3 -23 -1 -34 4 -20 9 -20 9 -1 -6z"/>
 <path d="M165 670 c11 -5 16 -9 10 -10 -5 0 -1 -7 9 -15 31 -23 37 -18 12 10 -13 14 -30 25 -37 24 -8 0 -5 -4 6 -9z"/>
 <path d="M2346 654 c-4 -9 -4 -19 -1 -22 3 -3 5 0 5 6 0 6 7 9 16 5 11 -4 15 -2 12 7 -7 21 -25 23 -32 4z"/>
 <path d="M2503 653 c9 -2 14 -9 11 -15 -4 -7 -2 -8 4 -4 20 12 13 26 -10 25 -18 -1 -19 -2 -5 -6z"/>
 <path d="M476 635 c-2 -7 8 -22 22 -34 18 -14 28 -17 31 -10 2 7 -4 18 -13 25 -13 9 -14 13 -4 16 7 3 3 7 -9 10 -13 3 -24 1 -27 -7z"/>
 <path d="M2625 630 c11 -5 27 -9 35 -9 9 0 8 4 -5 9 -11 5 -27 9 -35 9 -9 0 -8 -4 5 -9z"/>
 <path d="M2390 620 c14 -4 34 -8 45 -8 16 0 15 2 -5 8 -14 4 -34 8 -45 8 -16 0 -15 -2 5 -8z"/>
 <path d="M2698 604 c20 -14 22 -22 18 -62 l-5 -47 11 43 c9 36 8 45 -7 62 -10 11 -23 20 -29 20 -6 0 0 -7 12 -16z"/>
 <path d="M650 586 c6 -8 21 -16 33 -18 25 -3 25 -35 1 -55 -13 -10 -12 -12 6 -18 12 -4 24 -4 27 -1 4 3 -1 6 -11 6 -9 0 -15 4 -11 10 4 6 15 6 32 -1 18 -6 30 -6 39 2 19 16 17 29 -4 29 -9 0 -30 12 -45 26 -15 14 -35 23 -43 20 -7 -3 -14 -1 -14 4 0 6 -5 10 -11 10 -8 0 -8 -4 1 -14z"/>
 <path d="M2505 590 c11 -5 27 -9 35 -9 9 0 8 4 -5 9 -11 5 -27 9 -35 9 -9 0 -8 -4 5 -9z"/>
 <path d="M2560 586 c0 -2 17 -14 38 -26 l37 -21 -27 25 c-24 23 -48 34 -48 22z"/>
 <path d="M730 570 c0 -7 71 -22 77 -16 2 2 -14 8 -37 14 -22 5 -40 6 -40 2z"/>
 <path d="M595 562 c-6 -6 4 -22 15 -22 4 0 10 6 13 13 5 13 -17 20 -28 9z"/>
 <path d="M920 510 c21 -21 35 -27 26 -11 -4 5 -3 11 1 14 5 2 3 2 -4 1 -7 -2 -15 1 -18 6 -4 6 -10 10 -16 10 -5 0 0 -9 11 -20z"/>
 <path d="M767 496 c-4 -10 0 -12 15 -8 14 3 19 1 15 -6 -11 -17 16 -20 41 -4 12 8 25 12 29 9 3 -4 -2 -9 -11 -13 -20 -8 -21 -24 -1 -24 8 0 15 5 15 12 0 7 5 5 13 -5 6 -9 26 -18 42 -21 l30 -6 -32 11 c-17 6 -34 20 -36 30 -7 28 -35 34 -57 14 -17 -15 -20 -16 -20 -3 0 9 -7 19 -16 22 -21 8 -21 8 -27 -8z"/>
 <path d="M2625 490 c-3 -11 -4 -24 -1 -29 4 -5 2 -11 -2 -13 -5 -1 -12 -16 -16 -33 -4 -18 -3 -25 2 -17 6 10 15 7 35 -12 26 -24 27 -39 2 -30 -10 4 -12 -1 -8 -15 6 -23 33 -29 33 -8 0 6 3 23 7 36 4 16 3 22 -5 17 -6 -3 -13 -2 -17 4 -3 5 -1 10 4 10 6 0 11 5 11 11 0 8 -4 8 -14 0 -9 -7 -17 -8 -20 -2 -3 5 -3 11 1 14 5 2 2 2 -4 1 -22 -6 -14 14 8 21 12 4 18 12 15 21 -8 20 4 17 24 -6 18 -20 18 -20 23 2 4 12 4 24 2 27 -3 2 -5 -1 -5 -7 0 -9 -5 -9 -19 0 -15 9 -23 9 -37 -3 -15 -13 -16 -12 -10 9 4 12 5 22 2 22 -2 0 -7 -9 -11 -20z"/>
 <path d="M1023 482 c11 -11 16 -25 13 -31 -4 -6 8 -13 28 -16 36 -7 60 0 51 15 -3 5 0 10 7 13 7 2 2 2 -10 0 -13 -2 -21 0 -18 6 3 5 -6 12 -22 15 -15 4 -36 10 -47 13 -20 6 -20 5 -2 -15z"/>
 <path d="M1147 453 c-8 -7 11 -33 24 -33 4 0 7 9 6 20 -1 20 -17 27 -30 13z"/>
 <path d="M1190 446 c0 -3 18 -10 40 -16 28 -8 38 -15 34 -25 -4 -8 -4 -15 -1 -15 14 0 14 31 -1 38 -22 12 -72 24 -72 18z"/>
 <path d="M1190 400 c0 -5 7 -10 15 -10 8 0 15 5 15 10 0 6 -7 10 -15 10 -8 0 -15 -4 -15 -10z"/>
 <path d="M1296 345 c-3 -8 -2 -14 2 -13 4 1 15 -2 25 -7 10 -4 21 -5 24 -1 4 3 -1 6 -10 6 -10 0 -14 5 -11 15 4 9 0 15 -9 15 -8 0 -17 -7 -21 -15z"/>
 <path d="M1513 348 c2 -7 11 -12 20 -12 10 1 14 -3 10 -9 -4 -7 0 -8 11 -4 10 4 27 7 39 7 15 1 9 6 -18 15 -49 18 -68 19 -62 3z"/>
 <path d="M1380 324 c-25 -13 -25 -14 -2 -14 12 0 22 4 22 9 0 5 8 12 18 14 11 3 12 5 2 5 -8 0 -26 -6 -40 -14z"/>
 <path d="M1432 320 c-15 -25 -15 -30 0 -30 6 0 8 3 5 7 -4 3 0 15 10 25 9 10 12 18 7 18 -5 0 -15 -9 -22 -20z"/>
 <path d="M2583 330 c2 -8 -2 -28 -10 -43 -8 -16 -12 -34 -9 -40 2 -7 5 -4 5 6 1 13 10 17 37 17 21 0 33 -4 29 -10 -3 -5 -15 -10 -26 -10 -20 0 -26 -15 -9 -25 6 -3 10 -1 10 5 0 6 5 8 10 5 6 -4 7 -12 3 -18 -11 -18 -12 -37 -2 -37 8 0 13 29 10 58 -1 6 3 12 9 12 5 0 10 7 10 15 0 8 -5 15 -11 15 -5 0 -7 5 -4 10 3 6 1 10 -4 10 -6 0 -11 5 -11 11 0 5 4 7 10 4 6 -3 7 1 4 9 -7 19 -20 21 -30 5 -4 -8 -9 -7 -16 2 -8 11 -9 11 -5 -1z"/>
 <path d="M1700 309 c3 -3 17 -13 32 -22 23 -14 26 -15 22 -2 -4 8 -10 15 -14 15 -5 0 -17 3 -27 7 -10 3 -16 4 -13 2z"/>
 <path d="M1490 280 c8 -5 24 -10 34 -10 26 0 18 6 -19 14 -22 5 -26 4 -15 -4z"/>
 <path d="M1820 258 c22 -24 25 -34 10 -43 -11 -7 -2 -35 12 -35 7 0 6 5 -1 14 -9 11 -8 15 5 20 22 8 26 8 19 -4 -3 -5 -2 -10 4 -10 6 0 8 13 4 33 -7 37 -13 48 -13 24 0 -9 -4 -17 -10 -17 -9 0 -14 14 -11 33 0 4 -8 7 -19 7 l-21 0 21 -22z"/>
 <path d="M1595 250 c11 -5 27 -9 35 -9 9 0 8 4 -5 9 -11 5 -27 9 -35 9 -9 0 -8 -4 5 -9z"/>
 <path d="M1890 251 c8 -6 15 -16 15 -23 0 -7 14 -14 33 -16 59 -6 33 27 -33 42 -22 5 -26 4 -15 -3z"/>
 <path d="M2541 186 c-6 -27 -9 -51 -6 -54 3 -3 5 0 5 6 0 20 17 13 23 -9 4 -16 2 -19 -10 -15 -9 4 -21 1 -29 -4 -14 -13 -66 -16 -82 -6 -6 3 -13 2 -17 -4 -4 -6 5 -10 19 -10 16 0 26 -6 26 -15 0 -20 7 -19 32 5 12 10 25 17 30 14 4 -3 8 0 8 7 0 8 4 8 15 -1 10 -9 15 -9 15 -1 0 6 8 11 19 11 11 0 21 9 25 23 8 32 7 39 -4 32 -5 -3 -10 -1 -10 4 0 6 -5 11 -12 11 -7 0 -6 -6 4 -17 26 -30 10 -44 -20 -16 -16 14 -22 27 -16 31 6 4 8 18 4 32 -5 22 -8 19 -19 -24z"/>
 <path d="M2038 210 c25 -10 28 -20 10 -38 -6 -6 -9 -14 -6 -18 6 -6 49 15 59 30 4 5 12 5 19 1 9 -6 11 -4 6 4 -5 7 -15 10 -23 7 -8 -3 -24 1 -36 9 -12 8 -28 15 -37 14 -9 0 -6 -4 8 -9z"/>
 <path d="M2157 174 c-13 -14 -7 -32 13 -37 13 -3 20 0 20 9 0 8 9 14 20 14 13 0 18 -5 14 -15 -4 -8 -1 -15 4 -15 17 0 23 17 9 28 -17 13 -71 24 -80 16z"/>
 <path d="M2080 120 c0 -5 12 -10 28 -10 21 0 24 2 12 10 -20 13 -40 13 -40 0z"/>
 <path d="M2151 116 c-10 -12 -6 -26 10 -26 11 0 19 29 10 35 -5 2 -14 -1 -20 -9z"/>
 <path d="M2340 110 c0 -10 -9 -24 -20 -30 -11 -6 -20 -15 -20 -21 0 -6 4 -8 9 -4 5 3 12 1 16 -5 3 -5 14 -10 23 -9 11 0 13 2 4 6 -10 4 -10 8 -2 18 18 21 20 65 4 65 -8 0 -14 -9 -14 -20z"/>
 <path d="M2586 74 c-4 -14 -5 -28 -3 -31 3 -2 8 8 11 23 4 14 5 28 3 31 -3 2 -8 -8 -11 -23z"/>
 <path d="M2383 65 c-3 -9 -3 -19 1 -22 3 -4 6 2 6 12 0 17 1 17 23 -1 l22 -19 -19 23 c-23 26 -25 27 -33 7z"/>
 <path d="M2472 18 c2 -6 10 -14 16 -16 7 -2 10 2 6 12 -7 18 -28 22 -22 4z"/>
 </g>
<g id="layer104" fill="#af8289" stroke="none">
 <path d="M192 1295 c10 -11 48 -14 48 -4 0 5 -12 9 -27 9 -14 0 -24 -2 -21 -5z"/>
 <path d="M481 1221 c-12 -8 -12 -12 -2 -25 7 -9 11 -23 7 -31 -6 -18 -5 -18 28 -5 33 12 33 23 1 40 -13 7 -22 17 -19 22 7 10 3 10 -15 -1z"/>
 <path d="M550 1196 c0 -9 39 -13 51 -5 10 6 4 9 -18 9 -18 0 -33 -2 -33 -4z"/>
 <path d="M215 1180 c5 -8 8 -25 6 -37 -3 -31 5 -29 11 2 3 15 -1 30 -10 37 -13 11 -14 11 -7 -2z"/>
 <path d="M655 1170 c-7 -11 2 -30 13 -30 4 0 8 9 9 20 2 21 -11 27 -22 10z"/>
 <path d="M168 1152 c-33 -20 -36 -32 -9 -32 23 0 54 28 46 41 -4 5 -7 9 -8 8 -1 0 -14 -8 -29 -17z"/>
 <path d="M652 1111 c-11 -7 -11 -9 1 -14 9 -3 18 1 21 9 6 16 -2 18 -22 5z"/>
 <path d="M96 1101 c-3 -5 1 -11 9 -15 9 -3 15 0 15 9 0 16 -16 20 -24 6z"/>
 <path d="M85 1070 c-9 -15 -1 -23 21 -18 15 3 16 4 1 16 -11 9 -17 10 -22 2z"/>
 <path d="M148 1050 c-15 -17 -15 -18 7 -22 26 -5 55 13 55 33 -1 9 -4 8 -11 -4 -9 -16 -12 -16 -22 -4 -10 12 -14 12 -29 -3z"/>
 <path d="M70 1013 c0 -14 43 -41 57 -36 9 4 14 2 10 -3 -3 -5 6 -15 19 -21 22 -10 25 -9 22 5 -1 9 2 24 7 32 7 12 6 13 -7 3 -12 -11 -18 -10 -32 6 -15 16 -76 28 -76 14z"/>
 <path d="M45 929 c-9 -29 8 -43 41 -35 22 6 25 9 13 16 -7 5 -22 7 -32 4 -16 -5 -18 -2 -12 15 3 12 4 21 1 21 -2 0 -8 -9 -11 -21z"/>
 <path d="M133 928 c2 -7 10 -12 17 -10 11 3 11 0 1 -12 -7 -9 -18 -13 -25 -9 -8 4 -8 3 0 -6 6 -6 18 -9 28 -5 22 9 17 48 -8 52 -12 3 -17 -1 -13 -10z"/>
 <path d="M1540 905 c-7 -8 -16 -13 -20 -10 -5 3 -6 -4 -3 -14 4 -16 8 -17 18 -8 7 7 11 15 8 20 -2 4 6 11 19 16 15 7 17 10 7 10 -9 1 -22 -6 -29 -14z"/>
 <path d="M1645 900 c-4 -7 -2 -16 6 -21 18 -11 23 -4 11 17 -7 12 -11 13 -17 4z"/>
 <path d="M1805 860 c-4 -6 -2 -10 4 -10 6 0 9 -6 7 -12 -1 -7 -1 -10 1 -5 3 4 8 5 12 3 4 -3 8 1 8 9 0 17 -24 28 -32 15z"/>
 <path d="M100 830 c-12 -8 -11 -10 7 -10 12 0 24 -8 26 -17 4 -15 5 -15 6 -2 1 23 -21 40 -39 29z"/>
 <path d="M1898 804 c-3 -5 -2 -18 3 -29 5 -14 8 -15 9 -5 1 10 4 9 10 -5 6 -14 9 -16 9 -4 1 20 -24 55 -31 43z"/>
 <path d="M2122 761 c4 -13 18 -16 19 -4 0 4 -5 9 -11 12 -7 2 -11 -2 -8 -8z"/>
 <path d="M1985 742 c-3 -9 0 -12 9 -9 8 3 17 1 19 -6 3 -7 5 -3 4 9 -1 24 -23 28 -32 6z"/>
 <path d="M27 730 c-11 -13 -10 -13 6 -1 14 11 17 11 17 -2 0 -8 9 -17 20 -20 13 -3 18 -11 14 -20 -3 -8 0 -18 7 -23 8 -4 10 -3 5 4 -4 7 -2 12 3 12 6 0 11 -5 11 -11 0 -5 4 -7 10 -4 5 3 10 1 10 -6 0 -7 3 -10 6 -7 8 8 -22 64 -32 60 -5 -2 -10 1 -12 6 -2 6 7 12 20 14 13 2 2 6 -25 9 -36 3 -52 0 -60 -11z"/>
 <path d="M160 731 c0 -16 26 -30 39 -22 13 9 9 13 -21 24 -10 4 -18 3 -18 -2z"/>
 <path d="M2250 718 c0 -19 2 -20 10 -8 13 19 13 30 0 30 -5 0 -10 -10 -10 -22z"/>
 <path d="M2140 720 c13 -9 13 -10 0 -10 -12 -1 -11 -4 4 -15 10 -8 23 -12 28 -9 11 7 -20 44 -36 44 -6 0 -4 -5 4 -10z"/>
 <path d="M2370 706 c0 -13 37 -24 51 -15 12 9 12 10 -1 6 -8 -2 -23 0 -32 5 -10 5 -18 6 -18 4z"/>
 <path d="M210 671 c0 -5 10 -11 23 -15 33 -9 37 -7 31 9 -6 16 -54 21 -54 6z"/>
 <path d="M480 639 c0 -14 39 -54 46 -47 3 3 -6 17 -20 31 -14 15 -26 22 -26 16z"/>
 <path d="M730 569 c0 -5 -4 -8 -9 -5 -12 7 -19 -13 -13 -36 5 -22 34 -28 56 -13 12 9 14 15 5 20 -6 4 -15 1 -20 -6 -7 -11 -9 -9 -10 6 -1 11 -1 26 0 33 1 6 -1 12 -4 12 -3 0 -5 -5 -5 -11z"/>
 <path d="M607 563 c-9 -2 -15 -9 -12 -14 9 -14 22 -11 29 6 3 8 4 14 3 14 -1 -1 -10 -3 -20 -6z"/>
 <path d="M2716 545 c-3 -9 -6 -24 -5 -33 0 -9 5 -4 10 12 9 32 6 48 -5 21z"/>
 <path d="M782 497 c10 -8 15 -16 12 -19 -2 -3 2 -8 11 -12 12 -4 14 -2 6 13 -6 10 -18 21 -28 25 -17 6 -17 5 -1 -7z"/>
 <path d="M1020 491 c0 -6 5 -11 11 -11 6 0 9 -9 6 -19 -3 -15 2 -20 24 -25 16 -3 36 -3 45 1 15 5 15 7 0 15 -9 5 -14 13 -11 19 4 5 -2 10 -12 11 -33 2 -38 3 -50 11 -8 5 -13 4 -13 -2z"/>
 <path d="M855 470 c-16 -18 -16 -20 -2 -20 10 0 17 6 17 13 0 8 4 7 10 -3 5 -8 10 -10 10 -5 0 6 -4 16 -8 23 -7 9 -13 8 -27 -8z"/>
 <path d="M2623 473 c3 -13 1 -23 -4 -23 -5 0 -9 -4 -9 -10 0 -6 10 -5 25 2 23 10 31 32 11 28 -5 -1 -13 4 -18 12 -7 9 -8 7 -5 -9z"/>
 <path d="M2660 488 c0 -3 9 -15 20 -28 11 -13 20 -19 20 -13 0 5 -9 18 -20 28 -11 10 -20 16 -20 13z"/>
 <path d="M1147 453 c-8 -7 11 -33 24 -33 4 0 7 9 6 20 -1 20 -17 27 -30 13z"/>
 <path d="M1301 346 c-10 -12 -8 -13 8 -9 12 3 21 9 21 14 0 14 -16 11 -29 -5z"/>
 <path d="M1525 347 c3 -7 20 -13 37 -14 l32 -1 -25 14 c-31 17 -50 18 -44 1z"/>
 <path d="M2642 340 c13 -20 28 -27 28 -12 0 10 -22 32 -32 32 -5 0 -3 -9 4 -20z"/>
 <path d="M2584 328 c4 -17 38 -17 44 0 3 11 0 12 -16 3 -14 -7 -22 -7 -25 -1 -3 6 -4 5 -3 -2z"/>
 <path d="M1710 305 c0 -1 11 -10 25 -19 19 -13 23 -13 19 -2 -4 12 -44 31 -44 21z"/>
 <path d="M2597 293 c-13 -12 -7 -23 13 -23 11 0 20 7 20 15 0 15 -21 21 -33 8z"/>
 <path d="M1816 265 c4 -8 9 -15 13 -15 4 0 8 7 8 15 0 8 -6 15 -13 15 -8 0 -11 -6 -8 -15z"/>
 <path d="M1858 250 c-7 -24 -3 -38 8 -28 3 4 4 17 2 30 l-3 23 -7 -25z"/>
 <path d="M2590 241 c0 -6 5 -13 10 -16 6 -3 10 -1 10 5 0 6 5 8 10 5 6 -3 10 -1 10 4 0 6 -9 11 -20 11 -11 0 -20 -4 -20 -9z"/>
 <path d="M1909 229 c-8 -4 -3 -9 12 -14 14 -5 25 -3 27 4 2 6 9 8 15 4 7 -3 9 -2 4 2 -10 11 -43 14 -58 4z"/>
 <path d="M2537 163 c-4 -3 -7 -11 -7 -17 0 -6 4 -4 9 3 8 12 12 10 22 -12 7 -16 20 -27 31 -27 16 0 17 2 6 13 -39 36 -55 46 -61 40z"/>
 <path d="M2150 152 c0 -5 9 -12 21 -15 13 -3 19 -1 16 6 -5 15 -37 22 -37 9z"/>
 <path d="M2080 120 c0 -5 12 -10 28 -10 21 0 24 2 12 10 -20 13 -40 13 -40 0z"/>
 <path d="M2156 123 c-9 -9 -7 -33 3 -33 12 0 22 28 12 34 -5 3 -11 3 -15 -1z"/>
 <path d="M2340 110 c0 -11 -6 -23 -14 -26 -8 -3 -17 -12 -20 -20 -3 -8 -2 -12 3 -9 5 3 12 1 16 -5 3 -5 14 -10 23 -9 12 0 11 3 -5 9 -13 5 -23 12 -23 14 0 3 7 3 15 0 11 -5 13 -2 8 12 -5 13 -3 15 8 9 8 -4 11 -5 7 0 -4 4 -3 16 3 26 7 15 6 19 -6 19 -8 0 -15 -9 -15 -20z"/>
 <path d="M2503 103 c-18 -4 -40 -30 -31 -38 2 -2 19 8 38 21 19 13 30 23 25 23 -6 -1 -20 -4 -32 -6z"/>
 </g>
<g id="layer105" fill="#d89292" stroke="none">
 <path d="M204 1293 c10 -11 36 -12 36 -2 0 5 -10 9 -22 9 -12 0 -18 -3 -14 -7z"/>
 <path d="M481 1221 c-12 -8 -12 -12 -2 -25 7 -9 11 -23 7 -31 -6 -18 -5 -18 28 -5 33 12 33 23 1 40 -13 7 -22 17 -19 22 7 10 3 10 -15 -1z"/>
 <path d="M550 1196 c0 -9 40 -13 46 -5 3 5 -6 9 -20 9 -14 0 -26 -2 -26 -4z"/>
 <path d="M215 1180 c5 -8 8 -25 6 -37 -3 -31 5 -29 11 2 3 15 -1 30 -10 37 -13 11 -14 11 -7 -2z"/>
 <path d="M657 1174 c-7 -8 3 -34 13 -34 9 0 8 26 -1 35 -3 3 -8 2 -12 -1z"/>
 <path d="M168 1152 c-33 -20 -36 -32 -9 -32 23 0 54 28 46 41 -4 5 -7 9 -8 8 -1 0 -14 -8 -29 -17z"/>
 <path d="M96 1101 c-3 -5 1 -11 9 -15 9 -3 15 0 15 9 0 16 -16 20 -24 6z"/>
 <path d="M85 1070 c-9 -15 -1 -23 21 -18 15 3 16 4 1 16 -11 9 -17 10 -22 2z"/>
 <path d="M160 1063 c0 -7 -7 -10 -17 -7 -14 5 -15 4 -4 -4 11 -8 11 -10 0 -15 -10 -4 -9 -6 4 -6 9 -1 17 4 17 10 0 5 5 7 10 4 6 -4 8 -11 4 -16 -3 -6 3 -5 15 3 12 7 21 20 21 28 -1 12 -3 11 -11 -3 -10 -18 -11 -18 -25 0 -7 10 -14 13 -14 6z"/>
 <path d="M76 1013 c-6 -7 20 -34 31 -32 18 3 34 -2 29 -9 -2 -4 7 -13 20 -19 22 -10 25 -9 22 5 -1 9 2 24 7 32 7 12 6 13 -7 3 -12 -11 -18 -10 -32 6 -15 17 -58 25 -70 14z"/>
 <path d="M45 929 c-9 -29 8 -43 41 -35 22 6 25 9 13 16 -7 5 -22 7 -32 4 -16 -5 -18 -2 -12 15 3 12 4 21 1 21 -2 0 -8 -9 -11 -21z"/>
 <path d="M133 928 c2 -7 10 -12 17 -10 11 3 11 0 0 -13 -7 -8 -10 -18 -6 -22 3 -3 6 -1 6 6 0 7 5 9 11 5 7 -4 9 2 7 17 -2 14 -11 25 -22 27 -12 3 -17 -1 -13 -10z"/>
 <path d="M1537 902 c-21 -23 -24 -49 -3 -30 8 7 12 16 10 20 -3 4 4 11 13 17 10 6 13 11 7 11 -6 0 -18 -8 -27 -18z"/>
 <path d="M1640 892 c0 -5 7 -13 16 -16 10 -4 14 -1 12 6 -5 15 -28 23 -28 10z"/>
 <path d="M1813 838 c0 -13 1 -17 4 -10 3 6 8 10 12 8 4 -3 8 1 8 9 0 24 -23 17 -24 -7z"/>
 <path d="M100 830 c-12 -8 -11 -10 7 -10 12 0 24 -8 26 -17 4 -15 5 -15 6 -2 1 23 -21 40 -39 29z"/>
 <path d="M1897 804 c-3 -6 -2 -16 4 -24 5 -8 9 -10 10 -5 0 6 4 1 9 -10 6 -14 9 -16 9 -4 1 20 -24 55 -32 43z"/>
 <path d="M75 731 c3 -5 -3 -12 -12 -14 -13 -3 -12 -5 6 -6 16 -1 21 -5 17 -16 -3 -9 0 -15 8 -15 8 0 17 7 20 16 3 9 2 12 -5 9 -6 -4 -13 2 -16 14 -3 12 -10 21 -15 21 -5 0 -7 -4 -3 -9z"/>
 <path d="M160 731 c0 -13 28 -33 33 -23 3 4 -3 13 -14 20 -10 7 -19 8 -19 3z"/>
 <path d="M2139 721 c11 -7 11 -9 0 -14 -8 -3 -4 -6 9 -6 15 -1 21 -5 16 -13 -5 -7 -3 -8 5 -4 9 6 8 13 -5 27 -9 10 -22 19 -28 19 -6 0 -5 -4 3 -9z"/>
 <path d="M210 671 c0 -5 10 -11 23 -15 33 -9 37 -7 31 9 -6 16 -54 21 -54 6z"/>
 <path d="M480 639 c0 -14 39 -54 46 -47 3 3 -6 17 -20 31 -14 15 -26 22 -26 16z"/>
 <path d="M607 563 c-9 -2 -15 -9 -12 -14 9 -14 22 -11 29 6 3 8 4 14 3 14 -1 -1 -10 -3 -20 -6z"/>
 <path d="M707 557 c-7 -21 4 -45 22 -50 23 -6 57 18 40 28 -6 4 -15 1 -20 -6 -7 -11 -9 -11 -9 -1 0 21 -27 45 -33 29z"/>
 <path d="M1020 491 c0 -6 5 -11 11 -11 6 0 9 -9 6 -19 -3 -15 2 -20 24 -25 16 -3 35 -3 43 0 12 5 11 9 -5 25 -10 10 -27 20 -37 22 -9 1 -23 6 -29 10 -8 5 -13 4 -13 -2z"/>
 <path d="M855 470 c-16 -18 -16 -20 -2 -20 10 0 17 6 17 13 0 8 4 7 10 -3 5 -8 10 -10 10 -5 0 6 -4 16 -8 23 -7 9 -13 8 -27 -8z"/>
 <path d="M2630 469 c-13 -7 -13 -9 -1 -9 11 0 9 -4 -5 -16 -18 -15 -18 -15 3 -4 12 5 24 14 28 19 8 14 -9 21 -25 10z"/>
 <path d="M1145 452 c-6 -6 15 -32 26 -32 4 0 7 8 6 18 -1 17 -20 25 -32 14z"/>
 <path d="M1301 346 c-10 -12 -8 -13 8 -9 12 3 21 9 21 14 0 14 -16 11 -29 -5z"/>
 <path d="M2642 340 c7 -11 16 -20 21 -20 4 0 3 9 -3 20 -6 11 -15 20 -20 20 -6 0 -5 -9 2 -20z"/>
 <path d="M2584 328 c4 -17 38 -17 44 0 3 11 0 12 -16 3 -14 -7 -22 -7 -25 -1 -3 6 -4 5 -3 -2z"/>
 <path d="M2597 293 c-13 -12 -7 -23 13 -23 11 0 20 7 20 15 0 15 -21 21 -33 8z"/>
 <path d="M1858 245 c-3 -14 -1 -25 3 -25 5 0 9 11 9 25 0 14 -2 25 -4 25 -2 0 -6 -11 -8 -25z"/>
 <path d="M2590 241 c0 -6 5 -13 10 -16 6 -3 10 -1 10 5 0 6 5 8 10 5 6 -3 10 -1 10 4 0 6 -9 11 -20 11 -11 0 -20 -4 -20 -9z"/>
 <path d="M1909 229 c-8 -4 -3 -9 12 -14 14 -5 25 -3 27 4 2 6 9 8 15 4 7 -3 9 -2 4 2 -10 11 -43 14 -58 4z"/>
 <path d="M2537 163 c-4 -3 -7 -11 -7 -17 0 -6 4 -4 9 3 8 12 12 10 22 -12 7 -16 20 -27 31 -27 16 0 17 2 6 13 -39 36 -55 46 -61 40z"/>
 <path d="M2150 152 c0 -5 9 -12 21 -15 13 -3 19 -1 16 6 -5 15 -37 22 -37 9z"/>
 <path d="M2157 123 c-10 -10 -8 -33 2 -33 6 0 9 9 8 20 -1 23 -1 22 -10 13z"/>
 <path d="M2340 113 c0 -9 -10 -28 -22 -42 -13 -14 -19 -23 -14 -19 5 4 16 2 24 -5 13 -9 14 -9 8 1 -4 6 -3 12 3 12 6 0 7 7 4 17 -4 9 -2 14 3 11 5 -4 10 5 10 18 1 13 -2 24 -7 24 -5 0 -9 -8 -9 -17z"/>
 <path d="M2503 103 c-12 -2 -24 -11 -27 -20 -10 -25 -3 -24 29 2 17 13 28 24 25 23 -3 0 -15 -3 -27 -5z"/>
 </g>
<g id="layer106" fill="#e6c4bb" stroke="none">
 <path d="M476 1202 c7 -4 14 -17 15 -30 4 -21 6 -22 23 -9 18 13 19 16 4 31 -9 9 -25 16 -35 16 -11 0 -14 -3 -7 -8z"/>
 <path d="M174 1146 c-3 -9 -13 -12 -22 -9 -14 5 -15 4 -4 -8 13 -15 42 -4 50 19 5 17 -18 15 -24 -2z"/>
 <path d="M112 1008 c2 -6 10 -14 16 -16 7 -2 10 2 6 12 -7 18 -28 22 -22 4z"/>
 <path d="M49 907 c5 -5 19 -7 32 -5 20 3 19 5 -9 9 -20 3 -29 2 -23 -4z"/>
 <path d="M215 670 c3 -5 16 -10 28 -9 21 0 21 1 2 9 -28 12 -37 12 -30 0z"/>
 <path d="M711 550 c-1 -34 32 -56 51 -33 11 14 10 15 -9 9 -17 -5 -23 -1 -31 21 l-10 28 -1 -25z"/>
 <path d="M1046 461 c-3 -5 2 -12 12 -16 40 -18 55 -12 30 13 -14 14 -35 16 -42 3z"/>
 <path d="M2597 287 c-3 -8 3 -13 15 -14 10 -1 18 3 16 9 -6 18 -25 21 -31 5z"/>
 </g>
<g id="layer107" fill="#f8eeed" stroke="none">
 <path d="M490 1190 c6 -11 8 -26 4 -33 -5 -7 0 -6 12 3 10 8 21 16 23 17 6 4 -31 32 -42 33 -4 0 -3 -9 3 -20z"/>
 <path d="M179 1147 c-8 -7 -20 -12 -28 -9 -8 3 -11 0 -7 -7 10 -16 31 -14 46 4 17 20 7 30 -11 12z"/>
 <path d="M112 1008 c2 -6 10 -14 16 -16 7 -2 10 2 6 12 -7 18 -28 22 -22 4z"/>
 <path d="M215 670 c3 -5 16 -10 28 -9 21 0 21 1 2 9 -28 12 -37 12 -30 0z"/>
 <path d="M710 540 c0 -17 34 -42 44 -33 10 11 7 25 -5 18 -6 -4 -17 1 -24 11 -11 15 -14 16 -15 4z"/>
 <path d="M1050 460 c0 -11 42 -31 49 -24 2 2 -2 10 -9 19 -14 17 -40 20 -40 5z"/>
 <path d="M2602 289 c2 -7 10 -15 17 -17 8 -3 12 1 9 9 -2 7 -10 15 -17 17 -8 3 -12 -1 -9 -9z"/>
 </g>

</svg>