<!DOCTYPE svg PUBLIC "-//W3C//DTD SVG 20010904//EN" "http://www.w3.org/TR/2001/REC-SVG-20010904/DTD/svg10.dtd">
<svg version="1.0" xmlns="http://www.w3.org/2000/svg" width="6px" height="17px" viewBox="0 0 60 170" preserveAspectRatio="xMidYMid meet">
<g id="layer101" fill="#41636d" stroke="none">
 <path d="M6 155 c-9 -25 -9 -25 25 -25 24 0 30 4 27 18 -4 23 -44 28 -52 7z"/>
 <path d="M10 85 c0 -8 9 -15 20 -15 11 0 20 7 20 15 0 8 -9 15 -20 15 -11 0 -20 -7 -20 -15z"/>
 <path d="M0 33 c1 -35 52 -43 58 -10 3 13 -3 17 -27 17 -17 0 -31 -3 -31 -7z"/>
 </g>

</svg>